<?xml version="1.0" encoding="UTF-8" standalone="no"?>
<!DOCTYPE svg PUBLIC "-//W3C//DTD SVG 1.1//EN"
 "http://www.w3.org/Graphics/SVG/1.1/DTD/svg11.dtd">
<!-- Generated by graphviz version 2.50.0 (20211204.2007)
 -->
<!-- Pages: 1 -->
<svg width="764pt" height="163pt"
 viewBox="0.00 0.00 764.00 163.00" xmlns="http://www.w3.org/2000/svg" xmlns:xlink="http://www.w3.org/1999/xlink">
<g id="graph0" class="graph" transform="scale(1 1) rotate(0) translate(4 159)">
<polygon fill="white" stroke="transparent" points="-4,4 -4,-159 760,-159 760,4 -4,4"/>
<!-- tbl -->
<g id="node1" class="node">
<title>tbl</title>
<polygon fill="none" stroke="blue" points="8,-129.5 8,-150.5 105,-150.5 105,-129.5 8,-129.5"/>
<text text-anchor="start" x="36.5" y="-136.3" font-family="Times New Roman,serif" font-size="14.00">Variant</text>
<polygon fill="none" stroke="blue" points="105,-129.5 105,-150.5 748,-150.5 748,-129.5 105,-129.5"/>
<text text-anchor="start" x="398" y="-136.3" font-family="Times New Roman,serif" font-size="14.00">Alignment</text>
<polygon fill="none" stroke="blue" points="8,-108.5 8,-129.5 105,-129.5 105,-108.5 8,-108.5"/>
<text text-anchor="start" x="11" y="-116.8" font-family="Times New Roman,serif" font-size="9.00">Variant 1 (1 occurrences)</text>
<polygon fill="none" stroke="blue" points="105,-108.5 105,-129.5 748,-129.5 748,-108.5 105,-108.5"/>
<polygon fill="violet" stroke="transparent" points="110,-113.5 110,-124.5 254,-124.5 254,-113.5 110,-113.5"/>
<text text-anchor="start" x="154" y="-118.7" font-family="Times New Roman,serif" font-weight="bold" font-size="6.00">(MM)</text>
<text text-anchor="start" x="171" y="-118.7" font-family="Times New Roman,serif" font-size="6.00">register request</text>
<polygon fill="lightgreen" stroke="transparent" points="256,-113.5 256,-124.5 395,-124.5 395,-113.5 256,-113.5"/>
<text text-anchor="start" x="300" y="-117.7" font-family="Times New Roman,serif" font-size="6.00">examine thoroughly</text>
<polygon fill="lightgreen" stroke="transparent" points="397,-113.5 397,-124.5 513,-124.5 513,-113.5 397,-113.5"/>
<text text-anchor="start" x="440.5" y="-117.7" font-family="Times New Roman,serif" font-size="6.00">check ticket</text>
<polygon fill="lightgreen" stroke="transparent" points="515,-113.5 515,-124.5 619,-124.5 619,-113.5 515,-113.5"/>
<text text-anchor="start" x="558.5" y="-117.7" font-family="Times New Roman,serif" font-size="6.00">decide</text>
<polygon fill="lightgreen" stroke="transparent" points="621,-113.5 621,-124.5 743,-124.5 743,-113.5 621,-113.5"/>
<text text-anchor="start" x="664.5" y="-117.7" font-family="Times New Roman,serif" font-size="6.00">reject request</text>
<polygon fill="none" stroke="blue" points="8,-87.5 8,-108.5 105,-108.5 105,-87.5 8,-87.5"/>
<text text-anchor="start" x="11" y="-95.8" font-family="Times New Roman,serif" font-size="9.00">Variant 2 (1 occurrences)</text>
<polygon fill="none" stroke="blue" points="105,-87.5 105,-108.5 748,-108.5 748,-87.5 105,-87.5"/>
<polygon fill="lightgreen" stroke="transparent" points="110,-92.5 110,-103.5 236,-103.5 236,-92.5 110,-92.5"/>
<text text-anchor="start" x="153.5" y="-96.7" font-family="Times New Roman,serif" font-size="6.00">register request</text>
<polygon fill="lightgreen" stroke="transparent" points="238,-92.5 238,-103.5 354,-103.5 354,-92.5 238,-92.5"/>
<text text-anchor="start" x="281.5" y="-96.7" font-family="Times New Roman,serif" font-size="6.00">check ticket</text>
<polygon fill="lightgreen" stroke="transparent" points="356,-92.5 356,-103.5 487,-103.5 487,-92.5 356,-92.5"/>
<text text-anchor="start" x="399" y="-96.7" font-family="Times New Roman,serif" font-size="6.00">examine casually</text>
<polygon fill="violet" stroke="transparent" points="489,-92.5 489,-103.5 609,-103.5 609,-92.5 489,-92.5"/>
<text text-anchor="start" x="532" y="-97.7" font-family="Times New Roman,serif" font-weight="bold" font-size="6.00">(MM)</text>
<text text-anchor="start" x="549" y="-97.7" font-family="Times New Roman,serif" font-size="6.00">decide</text>
<polygon fill="lightgreen" stroke="transparent" points="611,-92.5 611,-103.5 743,-103.5 743,-92.5 611,-92.5"/>
<text text-anchor="start" x="654" y="-96.7" font-family="Times New Roman,serif" font-size="6.00">pay compensation</text>
<polygon fill="none" stroke="blue" points="8,-66.5 8,-87.5 105,-87.5 105,-66.5 8,-66.5"/>
<text text-anchor="start" x="11" y="-74.8" font-family="Times New Roman,serif" font-size="9.00">Variant 3 (1 occurrences)</text>
<polygon fill="none" stroke="blue" points="105,-66.5 105,-87.5 748,-87.5 748,-66.5 105,-66.5"/>
<polygon fill="lightgreen" stroke="transparent" points="110,-71.5 110,-82.5 212,-82.5 212,-71.5 110,-71.5"/>
<text text-anchor="start" x="141.5" y="-75.7" font-family="Times New Roman,serif" font-size="6.00">register request</text>
<polygon fill="violet" stroke="transparent" points="214,-71.5 214,-82.5 338,-82.5 338,-71.5 214,-71.5"/>
<text text-anchor="start" x="245" y="-76.7" font-family="Times New Roman,serif" font-weight="bold" font-size="6.00">(MM)</text>
<text text-anchor="start" x="262" y="-76.7" font-family="Times New Roman,serif" font-size="6.00">examine casually</text>
<polygon fill="lightgreen" stroke="transparent" points="340,-71.5 340,-82.5 431,-82.5 431,-71.5 340,-71.5"/>
<text text-anchor="start" x="371" y="-75.7" font-family="Times New Roman,serif" font-size="6.00">check ticket</text>
<polygon fill="lightgreen" stroke="transparent" points="433,-71.5 433,-82.5 512,-82.5 512,-71.5 433,-71.5"/>
<text text-anchor="start" x="464" y="-75.7" font-family="Times New Roman,serif" font-size="6.00">decide</text>
<polygon fill="orange" stroke="transparent" points="514,-71.5 514,-82.5 633,-82.5 633,-71.5 514,-71.5"/>
<text text-anchor="start" x="545" y="-76.7" font-family="Times New Roman,serif" font-weight="bold" font-size="6.00">(LM)</text>
<text text-anchor="start" x="560" y="-76.7" font-family="Times New Roman,serif" font-size="6.00">reinitiate request</text>
<polygon fill="lightgreen" stroke="transparent" points="635,-71.5 635,-82.5 743,-82.5 743,-71.5 635,-71.5"/>
<text text-anchor="start" x="666" y="-75.7" font-family="Times New Roman,serif" font-size="6.00">pay compensation</text>
<polygon fill="none" stroke="blue" points="8,-45.5 8,-66.5 105,-66.5 105,-45.5 8,-45.5"/>
<text text-anchor="start" x="11" y="-53.8" font-family="Times New Roman,serif" font-size="9.00">Variant 4 (1 occurrences)</text>
<polygon fill="none" stroke="blue" points="105,-45.5 105,-66.5 748,-66.5 748,-45.5 105,-45.5"/>
<polygon fill="lightgreen" stroke="transparent" points="110,-50.5 110,-61.5 240,-61.5 240,-50.5 110,-50.5"/>
<text text-anchor="start" x="155.5" y="-54.7" font-family="Times New Roman,serif" font-size="6.00">register request</text>
<polygon fill="lightgreen" stroke="transparent" points="242,-50.5 242,-61.5 362,-61.5 362,-50.5 242,-50.5"/>
<text text-anchor="start" x="287.5" y="-54.7" font-family="Times New Roman,serif" font-size="6.00">check ticket</text>
<polygon fill="lightgreen" stroke="transparent" points="364,-50.5 364,-61.5 506,-61.5 506,-50.5 364,-50.5"/>
<text text-anchor="start" x="409.5" y="-54.7" font-family="Times New Roman,serif" font-size="6.00">examine thoroughly</text>
<polygon fill="lightgreen" stroke="transparent" points="508,-50.5 508,-61.5 616,-61.5 616,-50.5 508,-50.5"/>
<text text-anchor="start" x="553.5" y="-54.7" font-family="Times New Roman,serif" font-size="6.00">decide</text>
<polygon fill="lightgreen" stroke="transparent" points="618,-50.5 618,-61.5 743,-61.5 743,-50.5 618,-50.5"/>
<text text-anchor="start" x="663" y="-54.7" font-family="Times New Roman,serif" font-size="6.00">reject request</text>
<polygon fill="none" stroke="blue" points="8,-24.5 8,-45.5 105,-45.5 105,-24.5 8,-24.5"/>
<text text-anchor="start" x="11" y="-32.8" font-family="Times New Roman,serif" font-size="9.00">Variant 5 (1 occurrences)</text>
<polygon fill="none" stroke="blue" points="105,-24.5 105,-45.5 748,-45.5 748,-24.5 105,-24.5"/>
<polygon fill="lightgreen" stroke="transparent" points="110,-29.5 110,-40.5 153,-40.5 153,-29.5 110,-29.5"/>
<text text-anchor="start" x="112" y="-33.7" font-family="Times New Roman,serif" font-size="6.00">register request</text>
<polygon fill="lightgreen" stroke="transparent" points="155,-29.5 155,-40.5 204,-40.5 204,-29.5 155,-29.5"/>
<text text-anchor="start" x="157" y="-33.7" font-family="Times New Roman,serif" font-size="6.00">examine casually</text>
<polygon fill="lightgreen" stroke="transparent" points="206,-29.5 206,-40.5 239,-40.5 239,-29.5 206,-29.5"/>
<text text-anchor="start" x="208" y="-33.7" font-family="Times New Roman,serif" font-size="6.00">check ticket</text>
<polygon fill="lightgreen" stroke="transparent" points="241,-29.5 241,-40.5 262,-40.5 262,-29.5 241,-29.5"/>
<text text-anchor="start" x="243" y="-33.7" font-family="Times New Roman,serif" font-size="6.00">decide</text>
<polygon fill="orange" stroke="transparent" points="264,-29.5 264,-40.5 354,-40.5 354,-29.5 264,-29.5"/>
<text text-anchor="start" x="266" y="-34.7" font-family="Times New Roman,serif" font-weight="bold" font-size="6.00">(LM)</text>
<text text-anchor="start" x="281" y="-34.7" font-family="Times New Roman,serif" font-size="6.00">reinitiate the request for real</text>
<polygon fill="violet" stroke="transparent" points="356,-29.5 356,-40.5 419,-40.5 419,-29.5 356,-29.5"/>
<text text-anchor="start" x="358" y="-34.7" font-family="Times New Roman,serif" font-weight="bold" font-size="6.00">(MM)</text>
<text text-anchor="start" x="375" y="-34.7" font-family="Times New Roman,serif" font-size="6.00">reinitiate request</text>
<polygon fill="lightgreen" stroke="transparent" points="421,-29.5 421,-40.5 454,-40.5 454,-29.5 421,-29.5"/>
<text text-anchor="start" x="423" y="-33.7" font-family="Times New Roman,serif" font-size="6.00">check ticket</text>
<polygon fill="lightgreen" stroke="transparent" points="456,-29.5 456,-40.5 505,-40.5 505,-29.5 456,-29.5"/>
<text text-anchor="start" x="458" y="-33.7" font-family="Times New Roman,serif" font-size="6.00">examine casually</text>
<polygon fill="lightgreen" stroke="transparent" points="507,-29.5 507,-40.5 528,-40.5 528,-29.5 507,-29.5"/>
<text text-anchor="start" x="509" y="-33.7" font-family="Times New Roman,serif" font-size="6.00">decide</text>
<polygon fill="violet" stroke="transparent" points="530,-29.5 530,-40.5 593,-40.5 593,-29.5 530,-29.5"/>
<text text-anchor="start" x="532" y="-34.7" font-family="Times New Roman,serif" font-weight="bold" font-size="6.00">(MM)</text>
<text text-anchor="start" x="549" y="-34.7" font-family="Times New Roman,serif" font-size="6.00">reinitiate request</text>
<polygon fill="lightgreen" stroke="transparent" points="595,-29.5 595,-40.5 644,-40.5 644,-29.5 595,-29.5"/>
<text text-anchor="start" x="597" y="-33.7" font-family="Times New Roman,serif" font-size="6.00">examine casually</text>
<polygon fill="lightgreen" stroke="transparent" points="646,-29.5 646,-40.5 679,-40.5 679,-29.5 646,-29.5"/>
<text text-anchor="start" x="648" y="-33.7" font-family="Times New Roman,serif" font-size="6.00">check ticket</text>
<polygon fill="lightgreen" stroke="transparent" points="681,-29.5 681,-40.5 702,-40.5 702,-29.5 681,-29.5"/>
<text text-anchor="start" x="683" y="-33.7" font-family="Times New Roman,serif" font-size="6.00">decide</text>
<polygon fill="lightgreen" stroke="transparent" points="704,-29.5 704,-40.5 743,-40.5 743,-29.5 704,-29.5"/>
<text text-anchor="start" x="706" y="-33.7" font-family="Times New Roman,serif" font-size="6.00">reject request</text>
<polygon fill="none" stroke="blue" points="8,-3.5 8,-24.5 105,-24.5 105,-3.5 8,-3.5"/>
<text text-anchor="start" x="11" y="-11.8" font-family="Times New Roman,serif" font-size="9.00">Variant 6 (1 occurrences)</text>
<polygon fill="none" stroke="blue" points="105,-3.5 105,-24.5 748,-24.5 748,-3.5 105,-3.5"/>
<polygon fill="lightgreen" stroke="transparent" points="110,-8.5 110,-19.5 208,-19.5 208,-8.5 110,-8.5"/>
<text text-anchor="start" x="139.5" y="-12.7" font-family="Times New Roman,serif" font-size="6.00">register request</text>
<polygon fill="violet" stroke="transparent" points="210,-8.5 210,-19.5 331,-19.5 331,-8.5 210,-8.5"/>
<text text-anchor="start" x="239.5" y="-13.7" font-family="Times New Roman,serif" font-weight="bold" font-size="6.00">(MM)</text>
<text text-anchor="start" x="256.5" y="-13.7" font-family="Times New Roman,serif" font-size="6.00">examine casually</text>
<polygon fill="lightgreen" stroke="transparent" points="333,-8.5 333,-19.5 421,-19.5 421,-8.5 333,-8.5"/>
<text text-anchor="start" x="362.5" y="-12.7" font-family="Times New Roman,serif" font-size="6.00">check ticket</text>
<polygon fill="violet" stroke="transparent" points="423,-8.5 423,-19.5 516,-19.5 516,-8.5 423,-8.5"/>
<text text-anchor="start" x="452.5" y="-13.7" font-family="Times New Roman,serif" font-weight="bold" font-size="6.00">(MM)</text>
<text text-anchor="start" x="469.5" y="-13.7" font-family="Times New Roman,serif" font-size="6.00">decide</text>
<polygon fill="orange" stroke="transparent" points="518,-8.5 518,-19.5 636,-19.5 636,-8.5 518,-8.5"/>
<text text-anchor="start" x="547.5" y="-13.7" font-family="Times New Roman,serif" font-weight="bold" font-size="6.00">(LM)</text>
<text text-anchor="start" x="562.5" y="-13.7" font-family="Times New Roman,serif" font-size="6.00">decide something</text>
<polygon fill="lightgreen" stroke="transparent" points="638,-8.5 638,-19.5 743,-19.5 743,-8.5 638,-8.5"/>
<text text-anchor="start" x="667.5" y="-12.7" font-family="Times New Roman,serif" font-size="6.00">pay compensation</text>
</g>
</g>
</svg>
