<?xml version="1.0" encoding="UTF-8" standalone="no"?>
<!DOCTYPE svg PUBLIC "-//W3C//DTD SVG 1.1//EN"
 "http://www.w3.org/Graphics/SVG/1.1/DTD/svg11.dtd">
<!-- Generated by graphviz version 2.50.0 (20211204.2007)
 -->
<!-- Pages: 1 -->
<svg width="634pt" height="268pt"
 viewBox="0.00 0.00 634.00 268.00" xmlns="http://www.w3.org/2000/svg" xmlns:xlink="http://www.w3.org/1999/xlink">
<g id="graph0" class="graph" transform="scale(1 1) rotate(0) translate(4 264)">
<polygon fill="white" stroke="transparent" points="-4,4 -4,-264 630,-264 630,4 -4,4"/>
<!-- tbl -->
<g id="node1" class="node">
<title>tbl</title>
<polygon fill="none" stroke="blue" points="8,-235 8,-256 109,-256 109,-235 8,-235"/>
<text text-anchor="start" x="38.5" y="-241.8" font-family="Times New Roman,serif" font-size="14.00">Variant</text>
<polygon fill="none" stroke="blue" points="109,-235 109,-256 618,-256 618,-235 109,-235"/>
<text text-anchor="start" x="335" y="-241.8" font-family="Times New Roman,serif" font-size="14.00">Alignment</text>
<polygon fill="none" stroke="blue" points="8,-214 8,-235 109,-235 109,-214 8,-214"/>
<text text-anchor="start" x="11" y="-222.3" font-family="Times New Roman,serif" font-size="9.00">Variant 1 (38 occurrences)</text>
<polygon fill="none" stroke="blue" points="109,-214 109,-235 618,-235 618,-214 109,-214"/>
<polygon fill="lightgreen" stroke="transparent" points="114,-219 114,-230 271,-230 271,-219 114,-219"/>
<text text-anchor="start" x="171" y="-223.2" font-family="Times New Roman,serif" font-size="6.00">A_SUBMITTED</text>
<polygon fill="lightgreen" stroke="transparent" points="273,-219 273,-230 453,-230 453,-219 273,-219"/>
<text text-anchor="start" x="329.5" y="-223.2" font-family="Times New Roman,serif" font-size="6.00">A_PARTLYSUBMITTED</text>
<polygon fill="lightgreen" stroke="transparent" points="455,-219 455,-230 613,-230 613,-219 455,-219"/>
<text text-anchor="start" x="511.5" y="-223.2" font-family="Times New Roman,serif" font-size="6.00">A_DECLINED_4</text>
<polygon fill="none" stroke="blue" points="8,-193 8,-214 109,-214 109,-193 8,-193"/>
<text text-anchor="start" x="11" y="-201.3" font-family="Times New Roman,serif" font-size="9.00">Variant 2 (13 occurrences)</text>
<polygon fill="none" stroke="blue" points="109,-193 109,-214 618,-214 618,-193 109,-193"/>
<polygon fill="lightgreen" stroke="transparent" points="114,-198 114,-209 190,-209 190,-198 114,-198"/>
<text text-anchor="start" x="130.5" y="-202.2" font-family="Times New Roman,serif" font-size="6.00">A_SUBMITTED</text>
<polygon fill="lightgreen" stroke="transparent" points="192,-198 192,-209 292,-209 292,-198 192,-198"/>
<text text-anchor="start" x="208.5" y="-202.2" font-family="Times New Roman,serif" font-size="6.00">A_PARTLYSUBMITTED</text>
<polygon fill="lightgreen" stroke="transparent" points="294,-198 294,-209 378,-209 378,-198 294,-198"/>
<text text-anchor="start" x="310.5" y="-202.2" font-family="Times New Roman,serif" font-size="6.00">A_PREACCEPTED</text>
<polygon fill="lightgreen" stroke="transparent" points="380,-198 380,-209 453,-209 453,-198 380,-198"/>
<text text-anchor="start" x="396.5" y="-202.2" font-family="Times New Roman,serif" font-size="6.00">A_ACCEPTED</text>
<polygon fill="lightgreen" stroke="transparent" points="455,-198 455,-209 528,-209 528,-198 455,-198"/>
<text text-anchor="start" x="471.5" y="-202.2" font-family="Times New Roman,serif" font-size="6.00">A_FINALIZED</text>
<polygon fill="lightgreen" stroke="transparent" points="530,-198 530,-209 613,-209 613,-198 530,-198"/>
<text text-anchor="start" x="546.5" y="-202.2" font-family="Times New Roman,serif" font-size="6.00">A_CANCELLED_1</text>
<polygon fill="none" stroke="blue" points="8,-172 8,-193 109,-193 109,-172 8,-172"/>
<text text-anchor="start" x="11" y="-180.3" font-family="Times New Roman,serif" font-size="9.00">Variant 3 (11 occurrences)</text>
<polygon fill="none" stroke="blue" points="109,-172 109,-193 618,-193 618,-172 109,-172"/>
<polygon fill="lightgreen" stroke="transparent" points="114,-177 114,-188 229,-188 229,-177 114,-177"/>
<text text-anchor="start" x="150" y="-181.2" font-family="Times New Roman,serif" font-size="6.00">A_SUBMITTED</text>
<polygon fill="lightgreen" stroke="transparent" points="231,-177 231,-188 370,-188 370,-177 231,-177"/>
<text text-anchor="start" x="267" y="-181.2" font-family="Times New Roman,serif" font-size="6.00">A_PARTLYSUBMITTED</text>
<polygon fill="lightgreen" stroke="transparent" points="372,-177 372,-188 495,-188 495,-177 372,-177"/>
<text text-anchor="start" x="408" y="-181.2" font-family="Times New Roman,serif" font-size="6.00">A_PREACCEPTED</text>
<polygon fill="lightgreen" stroke="transparent" points="497,-177 497,-188 613,-188 613,-177 497,-177"/>
<text text-anchor="start" x="532.5" y="-181.2" font-family="Times New Roman,serif" font-size="6.00">A_DECLINED_4</text>
<polygon fill="none" stroke="blue" points="8,-151 8,-172 109,-172 109,-151 8,-151"/>
<text text-anchor="start" x="11" y="-159.3" font-family="Times New Roman,serif" font-size="9.00">Variant 4 (10 occurrences)</text>
<polygon fill="none" stroke="blue" points="109,-151 109,-172 618,-172 618,-151 109,-151"/>
<polygon fill="lightgreen" stroke="transparent" points="114,-156 114,-167 191,-167 191,-156 114,-156"/>
<text text-anchor="start" x="131" y="-160.2" font-family="Times New Roman,serif" font-size="6.00">A_SUBMITTED</text>
<polygon fill="lightgreen" stroke="transparent" points="193,-156 193,-167 294,-167 294,-156 193,-156"/>
<text text-anchor="start" x="210" y="-160.2" font-family="Times New Roman,serif" font-size="6.00">A_PARTLYSUBMITTED</text>
<polygon fill="lightgreen" stroke="transparent" points="296,-156 296,-167 381,-167 381,-156 296,-156"/>
<text text-anchor="start" x="313" y="-160.2" font-family="Times New Roman,serif" font-size="6.00">A_PREACCEPTED</text>
<polygon fill="lightgreen" stroke="transparent" points="383,-156 383,-167 457,-167 457,-156 383,-156"/>
<text text-anchor="start" x="400" y="-160.2" font-family="Times New Roman,serif" font-size="6.00">A_ACCEPTED</text>
<polygon fill="lightgreen" stroke="transparent" points="459,-156 459,-167 533,-167 533,-156 459,-156"/>
<text text-anchor="start" x="476" y="-160.2" font-family="Times New Roman,serif" font-size="6.00">A_FINALIZED</text>
<polygon fill="lightgreen" stroke="transparent" points="535,-156 535,-167 613,-167 613,-156 535,-156"/>
<text text-anchor="start" x="551.5" y="-160.2" font-family="Times New Roman,serif" font-size="6.00">A_DECLINED_4</text>
<polygon fill="none" stroke="blue" points="8,-130 8,-151 109,-151 109,-130 8,-130"/>
<text text-anchor="start" x="13" y="-138.3" font-family="Times New Roman,serif" font-size="9.00">Variant 5 (9 occurrences)</text>
<polygon fill="none" stroke="blue" points="109,-130 109,-151 618,-151 618,-130 109,-130"/>
<polygon fill="lightgreen" stroke="transparent" points="114,-135 114,-146 228,-146 228,-135 114,-135"/>
<text text-anchor="start" x="149.5" y="-139.2" font-family="Times New Roman,serif" font-size="6.00">A_SUBMITTED</text>
<polygon fill="lightgreen" stroke="transparent" points="230,-135 230,-146 368,-146 368,-135 230,-135"/>
<text text-anchor="start" x="265.5" y="-139.2" font-family="Times New Roman,serif" font-size="6.00">A_PARTLYSUBMITTED</text>
<polygon fill="lightgreen" stroke="transparent" points="370,-135 370,-146 491,-146 491,-135 370,-135"/>
<text text-anchor="start" x="405" y="-139.2" font-family="Times New Roman,serif" font-size="6.00">A_PREACCEPTED</text>
<polygon fill="lightgreen" stroke="transparent" points="493,-135 493,-146 613,-146 613,-135 493,-135"/>
<text text-anchor="start" x="528" y="-139.2" font-family="Times New Roman,serif" font-size="6.00">A_CANCELLED_1</text>
<polygon fill="none" stroke="blue" points="8,-109 8,-130 109,-130 109,-109 8,-109"/>
<text text-anchor="start" x="13" y="-117.3" font-family="Times New Roman,serif" font-size="9.00">Variant 6 (7 occurrences)</text>
<polygon fill="none" stroke="blue" points="109,-109 109,-130 618,-130 618,-109 109,-109"/>
<polygon fill="lightgreen" stroke="transparent" points="114,-114 114,-125 172,-125 172,-114 114,-114"/>
<text text-anchor="start" x="121.5" y="-118.2" font-family="Times New Roman,serif" font-size="6.00">A_SUBMITTED</text>
<polygon fill="lightgreen" stroke="transparent" points="174,-114 174,-125 256,-125 256,-114 174,-114"/>
<text text-anchor="start" x="181.5" y="-118.2" font-family="Times New Roman,serif" font-size="6.00">A_PARTLYSUBMITTED</text>
<polygon fill="lightgreen" stroke="transparent" points="258,-114 258,-125 324,-125 324,-114 258,-114"/>
<text text-anchor="start" x="265.5" y="-118.2" font-family="Times New Roman,serif" font-size="6.00">A_PREACCEPTED</text>
<polygon fill="lightgreen" stroke="transparent" points="326,-114 326,-125 380,-125 380,-114 326,-114"/>
<text text-anchor="start" x="333" y="-118.2" font-family="Times New Roman,serif" font-size="6.00">A_ACCEPTED</text>
<polygon fill="lightgreen" stroke="transparent" points="382,-114 382,-125 436,-125 436,-114 382,-114"/>
<text text-anchor="start" x="389" y="-118.2" font-family="Times New Roman,serif" font-size="6.00">A_FINALIZED</text>
<polygon fill="lightgreen" stroke="transparent" points="438,-114 438,-125 493,-125 493,-114 438,-114"/>
<text text-anchor="start" x="445" y="-118.2" font-family="Times New Roman,serif" font-size="6.00">A_APPROVED</text>
<polygon fill="lightgreen" stroke="transparent" points="495,-114 495,-125 554,-125 554,-114 495,-114"/>
<text text-anchor="start" x="502" y="-118.2" font-family="Times New Roman,serif" font-size="6.00">A_REGISTERED</text>
<polygon fill="lightgreen" stroke="transparent" points="556,-114 556,-125 613,-125 613,-114 556,-114"/>
<text text-anchor="start" x="563" y="-118.2" font-family="Times New Roman,serif" font-size="6.00">A_ACTIVATED</text>
<polygon fill="none" stroke="blue" points="8,-88 8,-109 109,-109 109,-88 8,-88"/>
<text text-anchor="start" x="13" y="-96.3" font-family="Times New Roman,serif" font-size="9.00">Variant 7 (4 occurrences)</text>
<polygon fill="none" stroke="blue" points="109,-88 109,-109 618,-109 618,-88 109,-88"/>
<polygon fill="lightgreen" stroke="transparent" points="114,-93 114,-104 161,-104 161,-93 114,-93"/>
<text text-anchor="start" x="116" y="-97.2" font-family="Times New Roman,serif" font-size="6.00">A_SUBMITTED</text>
<polygon fill="lightgreen" stroke="transparent" points="163,-93 163,-104 234,-104 234,-93 163,-93"/>
<text text-anchor="start" x="165" y="-97.2" font-family="Times New Roman,serif" font-size="6.00">A_PARTLYSUBMITTED</text>
<polygon fill="lightgreen" stroke="transparent" points="236,-93 236,-104 291,-104 291,-93 236,-93"/>
<text text-anchor="start" x="238" y="-97.2" font-family="Times New Roman,serif" font-size="6.00">A_PREACCEPTED</text>
<polygon fill="lightgreen" stroke="transparent" points="293,-93 293,-104 337,-104 337,-93 293,-93"/>
<text text-anchor="start" x="295" y="-97.2" font-family="Times New Roman,serif" font-size="6.00">A_ACCEPTED</text>
<polygon fill="lightgreen" stroke="transparent" points="339,-93 339,-104 383,-104 383,-93 339,-93"/>
<text text-anchor="start" x="341" y="-97.2" font-family="Times New Roman,serif" font-size="6.00">A_FINALIZED</text>
<polygon fill="orange" stroke="transparent" points="385,-93 385,-104 449,-104 449,-93 385,-93"/>
<text text-anchor="start" x="387" y="-98.2" font-family="Times New Roman,serif" font-weight="bold" font-size="6.00">(LM)</text>
<text text-anchor="start" x="402" y="-98.2" font-family="Times New Roman,serif" font-size="6.00">A_REGISTERED</text>
<polygon fill="lightgreen" stroke="transparent" points="451,-93 451,-104 496,-104 496,-93 451,-93"/>
<text text-anchor="start" x="453" y="-97.2" font-family="Times New Roman,serif" font-size="6.00">A_APPROVED</text>
<polygon fill="violet" stroke="transparent" points="498,-93 498,-104 564,-104 564,-93 498,-93"/>
<text text-anchor="start" x="500" y="-98.2" font-family="Times New Roman,serif" font-weight="bold" font-size="6.00">(MM)</text>
<text text-anchor="start" x="517" y="-98.2" font-family="Times New Roman,serif" font-size="6.00">A_REGISTERED</text>
<polygon fill="lightgreen" stroke="transparent" points="566,-93 566,-104 613,-104 613,-93 566,-93"/>
<text text-anchor="start" x="568" y="-97.2" font-family="Times New Roman,serif" font-size="6.00">A_ACTIVATED</text>
<polygon fill="none" stroke="blue" points="8,-67 8,-88 109,-88 109,-67 8,-67"/>
<text text-anchor="start" x="13" y="-75.3" font-family="Times New Roman,serif" font-size="9.00">Variant 8 (3 occurrences)</text>
<polygon fill="none" stroke="blue" points="109,-67 109,-88 618,-88 618,-67 109,-67"/>
<polygon fill="lightgreen" stroke="transparent" points="114,-72 114,-83 162,-83 162,-72 114,-72"/>
<text text-anchor="start" x="116.5" y="-76.2" font-family="Times New Roman,serif" font-size="6.00">A_SUBMITTED</text>
<polygon fill="lightgreen" stroke="transparent" points="164,-72 164,-83 236,-83 236,-72 164,-72"/>
<text text-anchor="start" x="166.5" y="-76.2" font-family="Times New Roman,serif" font-size="6.00">A_PARTLYSUBMITTED</text>
<polygon fill="lightgreen" stroke="transparent" points="238,-72 238,-83 294,-83 294,-72 238,-72"/>
<text text-anchor="start" x="240.5" y="-76.2" font-family="Times New Roman,serif" font-size="6.00">A_PREACCEPTED</text>
<polygon fill="lightgreen" stroke="transparent" points="296,-72 296,-83 341,-83 341,-72 296,-72"/>
<text text-anchor="start" x="298.5" y="-76.2" font-family="Times New Roman,serif" font-size="6.00">A_ACCEPTED</text>
<polygon fill="lightgreen" stroke="transparent" points="343,-72 343,-83 387,-83 387,-72 343,-72"/>
<text text-anchor="start" x="345" y="-76.2" font-family="Times New Roman,serif" font-size="6.00">A_FINALIZED</text>
<polygon fill="violet" stroke="transparent" points="389,-72 389,-83 451,-83 451,-72 389,-72"/>
<text text-anchor="start" x="391" y="-77.2" font-family="Times New Roman,serif" font-weight="bold" font-size="6.00">(MM)</text>
<text text-anchor="start" x="408" y="-77.2" font-family="Times New Roman,serif" font-size="6.00">A_APPROVED</text>
<polygon fill="lightgreen" stroke="transparent" points="453,-72 453,-83 502,-83 502,-72 453,-72"/>
<text text-anchor="start" x="455" y="-76.2" font-family="Times New Roman,serif" font-size="6.00">A_REGISTERED</text>
<polygon fill="lightgreen" stroke="transparent" points="504,-72 504,-83 551,-83 551,-72 504,-72"/>
<text text-anchor="start" x="506" y="-76.2" font-family="Times New Roman,serif" font-size="6.00">A_ACTIVATED</text>
<polygon fill="orange" stroke="transparent" points="553,-72 553,-83 613,-83 613,-72 553,-72"/>
<text text-anchor="start" x="555" y="-77.2" font-family="Times New Roman,serif" font-weight="bold" font-size="6.00">(LM)</text>
<text text-anchor="start" x="570" y="-77.2" font-family="Times New Roman,serif" font-size="6.00">A_APPROVED</text>
<polygon fill="none" stroke="blue" points="8,-46 8,-67 109,-67 109,-46 8,-46"/>
<text text-anchor="start" x="13" y="-54.3" font-family="Times New Roman,serif" font-size="9.00">Variant 9 (3 occurrences)</text>
<polygon fill="none" stroke="blue" points="109,-46 109,-67 618,-67 618,-46 109,-46"/>
<polygon fill="lightgreen" stroke="transparent" points="114,-51 114,-62 172,-62 172,-51 114,-51"/>
<text text-anchor="start" x="121.5" y="-55.2" font-family="Times New Roman,serif" font-size="6.00">A_SUBMITTED</text>
<polygon fill="lightgreen" stroke="transparent" points="174,-51 174,-62 256,-62 256,-51 174,-51"/>
<text text-anchor="start" x="181.5" y="-55.2" font-family="Times New Roman,serif" font-size="6.00">A_PARTLYSUBMITTED</text>
<polygon fill="lightgreen" stroke="transparent" points="258,-51 258,-62 324,-62 324,-51 258,-51"/>
<text text-anchor="start" x="265.5" y="-55.2" font-family="Times New Roman,serif" font-size="6.00">A_PREACCEPTED</text>
<polygon fill="lightgreen" stroke="transparent" points="326,-51 326,-62 380,-62 380,-51 326,-51"/>
<text text-anchor="start" x="333" y="-55.2" font-family="Times New Roman,serif" font-size="6.00">A_ACCEPTED</text>
<polygon fill="lightgreen" stroke="transparent" points="382,-51 382,-62 436,-62 436,-51 382,-51"/>
<text text-anchor="start" x="389" y="-55.2" font-family="Times New Roman,serif" font-size="6.00">A_FINALIZED</text>
<polygon fill="lightgreen" stroke="transparent" points="438,-51 438,-62 493,-62 493,-51 438,-51"/>
<text text-anchor="start" x="445" y="-55.2" font-family="Times New Roman,serif" font-size="6.00">A_APPROVED</text>
<polygon fill="lightgreen" stroke="transparent" points="495,-51 495,-62 552,-62 552,-51 495,-51"/>
<text text-anchor="start" x="502" y="-55.2" font-family="Times New Roman,serif" font-size="6.00">A_ACTIVATED</text>
<polygon fill="lightgreen" stroke="transparent" points="554,-51 554,-62 613,-62 613,-51 554,-51"/>
<text text-anchor="start" x="561" y="-55.2" font-family="Times New Roman,serif" font-size="6.00">A_REGISTERED</text>
<polygon fill="none" stroke="blue" points="8,-25 8,-46 109,-46 109,-25 8,-25"/>
<text text-anchor="start" x="11" y="-33.3" font-family="Times New Roman,serif" font-size="9.00">Variant 10 (1 occurrences)</text>
<polygon fill="none" stroke="blue" points="109,-25 109,-46 618,-46 618,-25 109,-25"/>
<polygon fill="lightgreen" stroke="transparent" points="114,-30 114,-41 162,-41 162,-30 114,-30"/>
<text text-anchor="start" x="116.5" y="-34.2" font-family="Times New Roman,serif" font-size="6.00">A_SUBMITTED</text>
<polygon fill="lightgreen" stroke="transparent" points="164,-30 164,-41 236,-41 236,-30 164,-30"/>
<text text-anchor="start" x="166.5" y="-34.2" font-family="Times New Roman,serif" font-size="6.00">A_PARTLYSUBMITTED</text>
<polygon fill="lightgreen" stroke="transparent" points="238,-30 238,-41 294,-41 294,-30 238,-30"/>
<text text-anchor="start" x="240.5" y="-34.2" font-family="Times New Roman,serif" font-size="6.00">A_PREACCEPTED</text>
<polygon fill="lightgreen" stroke="transparent" points="296,-30 296,-41 341,-41 341,-30 296,-30"/>
<text text-anchor="start" x="298.5" y="-34.2" font-family="Times New Roman,serif" font-size="6.00">A_ACCEPTED</text>
<polygon fill="lightgreen" stroke="transparent" points="343,-30 343,-41 387,-41 387,-30 343,-30"/>
<text text-anchor="start" x="345" y="-34.2" font-family="Times New Roman,serif" font-size="6.00">A_FINALIZED</text>
<polygon fill="violet" stroke="transparent" points="389,-30 389,-41 451,-41 451,-30 389,-30"/>
<text text-anchor="start" x="391" y="-35.2" font-family="Times New Roman,serif" font-weight="bold" font-size="6.00">(MM)</text>
<text text-anchor="start" x="408" y="-35.2" font-family="Times New Roman,serif" font-size="6.00">A_APPROVED</text>
<polygon fill="lightgreen" stroke="transparent" points="453,-30 453,-41 500,-41 500,-30 453,-30"/>
<text text-anchor="start" x="455" y="-34.2" font-family="Times New Roman,serif" font-size="6.00">A_ACTIVATED</text>
<polygon fill="lightgreen" stroke="transparent" points="502,-30 502,-41 551,-41 551,-30 502,-30"/>
<text text-anchor="start" x="504" y="-34.2" font-family="Times New Roman,serif" font-size="6.00">A_REGISTERED</text>
<polygon fill="orange" stroke="transparent" points="553,-30 553,-41 613,-41 613,-30 553,-30"/>
<text text-anchor="start" x="555" y="-35.2" font-family="Times New Roman,serif" font-weight="bold" font-size="6.00">(LM)</text>
<text text-anchor="start" x="570" y="-35.2" font-family="Times New Roman,serif" font-size="6.00">A_APPROVED</text>
<polygon fill="none" stroke="blue" points="8,-4 8,-25 109,-25 109,-4 8,-4"/>
<text text-anchor="start" x="11" y="-12.3" font-family="Times New Roman,serif" font-size="9.00">Variant 11 (1 occurrences)</text>
<polygon fill="none" stroke="blue" points="109,-4 109,-25 618,-25 618,-4 109,-4"/>
<polygon fill="lightgreen" stroke="transparent" points="114,-9 114,-20 162,-20 162,-9 114,-9"/>
<text text-anchor="start" x="116.5" y="-13.2" font-family="Times New Roman,serif" font-size="6.00">A_SUBMITTED</text>
<polygon fill="lightgreen" stroke="transparent" points="164,-9 164,-20 236,-20 236,-9 164,-9"/>
<text text-anchor="start" x="166.5" y="-13.2" font-family="Times New Roman,serif" font-size="6.00">A_PARTLYSUBMITTED</text>
<polygon fill="lightgreen" stroke="transparent" points="238,-9 238,-20 293,-20 293,-9 238,-9"/>
<text text-anchor="start" x="240" y="-13.2" font-family="Times New Roman,serif" font-size="6.00">A_PREACCEPTED</text>
<polygon fill="lightgreen" stroke="transparent" points="295,-9 295,-20 339,-20 339,-9 295,-9"/>
<text text-anchor="start" x="297" y="-13.2" font-family="Times New Roman,serif" font-size="6.00">A_ACCEPTED</text>
<polygon fill="lightgreen" stroke="transparent" points="341,-9 341,-20 385,-20 385,-9 341,-9"/>
<text text-anchor="start" x="343" y="-13.2" font-family="Times New Roman,serif" font-size="6.00">A_FINALIZED</text>
<polygon fill="orange" stroke="transparent" points="387,-9 387,-20 449,-20 449,-9 387,-9"/>
<text text-anchor="start" x="389" y="-14.2" font-family="Times New Roman,serif" font-weight="bold" font-size="6.00">(LM)</text>
<text text-anchor="start" x="404" y="-14.2" font-family="Times New Roman,serif" font-size="6.00">A_ACTIVATED</text>
<polygon fill="lightgreen" stroke="transparent" points="451,-9 451,-20 496,-20 496,-9 451,-9"/>
<text text-anchor="start" x="453" y="-13.2" font-family="Times New Roman,serif" font-size="6.00">A_APPROVED</text>
<polygon fill="violet" stroke="transparent" points="498,-9 498,-20 562,-20 562,-9 498,-9"/>
<text text-anchor="start" x="500" y="-14.2" font-family="Times New Roman,serif" font-weight="bold" font-size="6.00">(MM)</text>
<text text-anchor="start" x="517" y="-14.2" font-family="Times New Roman,serif" font-size="6.00">A_ACTIVATED</text>
<polygon fill="lightgreen" stroke="transparent" points="564,-9 564,-20 613,-20 613,-9 564,-9"/>
<text text-anchor="start" x="566" y="-13.2" font-family="Times New Roman,serif" font-size="6.00">A_REGISTERED</text>
</g>
</g>
</svg>
