<?xml version="1.0" encoding="UTF-8" standalone="no"?>
<!DOCTYPE svg PUBLIC "-//W3C//DTD SVG 1.1//EN"
 "http://www.w3.org/Graphics/SVG/1.1/DTD/svg11.dtd">
<!-- Generated by graphviz version 2.50.0 (20211204.2007)
 -->
<!-- Pages: 1 -->
<svg width="912pt" height="163pt"
 viewBox="0.00 0.00 912.00 163.00" xmlns="http://www.w3.org/2000/svg" xmlns:xlink="http://www.w3.org/1999/xlink">
<g id="graph0" class="graph" transform="scale(1 1) rotate(0) translate(4 159)">
<polygon fill="white" stroke="transparent" points="-4,4 -4,-159 908,-159 908,4 -4,4"/>
<!-- tbl -->
<g id="node1" class="node">
<title>tbl</title>
<polygon fill="none" stroke="blue" points="8,-129.5 8,-150.5 105,-150.5 105,-129.5 8,-129.5"/>
<text text-anchor="start" x="36.5" y="-136.3" font-family="Times New Roman,serif" font-size="14.00">Variant</text>
<polygon fill="none" stroke="blue" points="105,-129.5 105,-150.5 896,-150.5 896,-129.5 105,-129.5"/>
<text text-anchor="start" x="472" y="-136.3" font-family="Times New Roman,serif" font-size="14.00">Alignment</text>
<polygon fill="none" stroke="blue" points="8,-108.5 8,-129.5 105,-129.5 105,-108.5 8,-108.5"/>
<text text-anchor="start" x="11" y="-116.8" font-family="Times New Roman,serif" font-size="9.00">Variant 1 (1 occurrences)</text>
<polygon fill="none" stroke="blue" points="105,-108.5 105,-129.5 896,-129.5 896,-108.5 105,-108.5"/>
<polygon fill="violet" stroke="transparent" points="110,-113.5 110,-124.5 241,-124.5 241,-113.5 110,-113.5"/>
<text text-anchor="start" x="147.5" y="-118.7" font-family="Times New Roman,serif" font-weight="bold" font-size="6.00">(MM)</text>
<text text-anchor="start" x="164.5" y="-118.7" font-family="Times New Roman,serif" font-size="6.00">register request</text>
<polygon fill="violet" stroke="transparent" points="243,-113.5 243,-124.5 348,-124.5 348,-113.5 243,-113.5"/>
<text text-anchor="start" x="280" y="-118.7" font-family="Times New Roman,serif" font-weight="bold" font-size="6.00">(MM)</text>
<text text-anchor="start" x="297" y="-118.7" font-family="Times New Roman,serif" font-size="6.00">None</text>
<polygon fill="lightgreen" stroke="transparent" points="350,-113.5 350,-124.5 475,-124.5 475,-113.5 350,-113.5"/>
<text text-anchor="start" x="387" y="-117.7" font-family="Times New Roman,serif" font-size="6.00">examine thoroughly</text>
<polygon fill="lightgreen" stroke="transparent" points="477,-113.5 477,-124.5 580,-124.5 580,-113.5 477,-113.5"/>
<text text-anchor="start" x="514" y="-117.7" font-family="Times New Roman,serif" font-size="6.00">check ticket</text>
<polygon fill="lightgreen" stroke="transparent" points="582,-113.5 582,-124.5 673,-124.5 673,-113.5 582,-113.5"/>
<text text-anchor="start" x="619" y="-117.7" font-family="Times New Roman,serif" font-size="6.00">decide</text>
<polygon fill="violet" stroke="transparent" points="675,-113.5 675,-124.5 780,-124.5 780,-113.5 675,-113.5"/>
<text text-anchor="start" x="712" y="-118.7" font-family="Times New Roman,serif" font-weight="bold" font-size="6.00">(MM)</text>
<text text-anchor="start" x="729" y="-118.7" font-family="Times New Roman,serif" font-size="6.00">None</text>
<polygon fill="lightgreen" stroke="transparent" points="782,-113.5 782,-124.5 891,-124.5 891,-113.5 782,-113.5"/>
<text text-anchor="start" x="819" y="-117.7" font-family="Times New Roman,serif" font-size="6.00">reject request</text>
<polygon fill="none" stroke="blue" points="8,-87.5 8,-108.5 105,-108.5 105,-87.5 8,-87.5"/>
<text text-anchor="start" x="11" y="-95.8" font-family="Times New Roman,serif" font-size="9.00">Variant 2 (1 occurrences)</text>
<polygon fill="none" stroke="blue" points="105,-87.5 105,-108.5 896,-108.5 896,-87.5 105,-87.5"/>
<polygon fill="lightgreen" stroke="transparent" points="110,-92.5 110,-103.5 223,-103.5 223,-92.5 110,-92.5"/>
<text text-anchor="start" x="147" y="-96.7" font-family="Times New Roman,serif" font-size="6.00">register request</text>
<polygon fill="violet" stroke="transparent" points="225,-92.5 225,-103.5 330,-103.5 330,-92.5 225,-92.5"/>
<text text-anchor="start" x="262" y="-97.7" font-family="Times New Roman,serif" font-weight="bold" font-size="6.00">(MM)</text>
<text text-anchor="start" x="279" y="-97.7" font-family="Times New Roman,serif" font-size="6.00">None</text>
<polygon fill="lightgreen" stroke="transparent" points="332,-92.5 332,-103.5 435,-103.5 435,-92.5 332,-92.5"/>
<text text-anchor="start" x="369" y="-96.7" font-family="Times New Roman,serif" font-size="6.00">check ticket</text>
<polygon fill="lightgreen" stroke="transparent" points="437,-92.5 437,-103.5 555,-103.5 555,-92.5 437,-92.5"/>
<text text-anchor="start" x="473.5" y="-96.7" font-family="Times New Roman,serif" font-size="6.00">examine casually</text>
<polygon fill="violet" stroke="transparent" points="557,-92.5 557,-103.5 664,-103.5 664,-92.5 557,-92.5"/>
<text text-anchor="start" x="593.5" y="-97.7" font-family="Times New Roman,serif" font-weight="bold" font-size="6.00">(MM)</text>
<text text-anchor="start" x="610.5" y="-97.7" font-family="Times New Roman,serif" font-size="6.00">decide</text>
<polygon fill="violet" stroke="transparent" points="666,-92.5 666,-103.5 770,-103.5 770,-92.5 666,-92.5"/>
<text text-anchor="start" x="702.5" y="-97.7" font-family="Times New Roman,serif" font-weight="bold" font-size="6.00">(MM)</text>
<text text-anchor="start" x="719.5" y="-97.7" font-family="Times New Roman,serif" font-size="6.00">None</text>
<polygon fill="lightgreen" stroke="transparent" points="772,-92.5 772,-103.5 891,-103.5 891,-92.5 772,-92.5"/>
<text text-anchor="start" x="808.5" y="-96.7" font-family="Times New Roman,serif" font-size="6.00">pay compensation</text>
<polygon fill="none" stroke="blue" points="8,-66.5 8,-87.5 105,-87.5 105,-66.5 8,-66.5"/>
<text text-anchor="start" x="11" y="-74.8" font-family="Times New Roman,serif" font-size="9.00">Variant 3 (1 occurrences)</text>
<polygon fill="none" stroke="blue" points="105,-66.5 105,-87.5 896,-87.5 896,-66.5 105,-66.5"/>
<polygon fill="lightgreen" stroke="transparent" points="110,-71.5 110,-82.5 206,-82.5 206,-71.5 110,-71.5"/>
<text text-anchor="start" x="138.5" y="-75.7" font-family="Times New Roman,serif" font-size="6.00">register request</text>
<polygon fill="violet" stroke="transparent" points="208,-71.5 208,-82.5 296,-82.5 296,-71.5 208,-71.5"/>
<text text-anchor="start" x="236.5" y="-76.7" font-family="Times New Roman,serif" font-weight="bold" font-size="6.00">(MM)</text>
<text text-anchor="start" x="253.5" y="-76.7" font-family="Times New Roman,serif" font-size="6.00">None</text>
<polygon fill="violet" stroke="transparent" points="298,-71.5 298,-82.5 417,-82.5 417,-71.5 298,-71.5"/>
<text text-anchor="start" x="326.5" y="-76.7" font-family="Times New Roman,serif" font-weight="bold" font-size="6.00">(MM)</text>
<text text-anchor="start" x="343.5" y="-76.7" font-family="Times New Roman,serif" font-size="6.00">examine casually</text>
<polygon fill="lightgreen" stroke="transparent" points="419,-71.5 419,-82.5 505,-82.5 505,-71.5 419,-71.5"/>
<text text-anchor="start" x="447.5" y="-75.7" font-family="Times New Roman,serif" font-size="6.00">check ticket</text>
<polygon fill="lightgreen" stroke="transparent" points="507,-71.5 507,-82.5 581,-82.5 581,-71.5 507,-71.5"/>
<text text-anchor="start" x="535.5" y="-75.7" font-family="Times New Roman,serif" font-size="6.00">decide</text>
<polygon fill="orange" stroke="transparent" points="583,-71.5 583,-82.5 697,-82.5 697,-71.5 583,-71.5"/>
<text text-anchor="start" x="611.5" y="-76.7" font-family="Times New Roman,serif" font-weight="bold" font-size="6.00">(LM)</text>
<text text-anchor="start" x="626.5" y="-76.7" font-family="Times New Roman,serif" font-size="6.00">reinitiate request</text>
<polygon fill="violet" stroke="transparent" points="699,-71.5 699,-82.5 787,-82.5 787,-71.5 699,-71.5"/>
<text text-anchor="start" x="727.5" y="-76.7" font-family="Times New Roman,serif" font-weight="bold" font-size="6.00">(MM)</text>
<text text-anchor="start" x="744.5" y="-76.7" font-family="Times New Roman,serif" font-size="6.00">None</text>
<polygon fill="lightgreen" stroke="transparent" points="789,-71.5 789,-82.5 891,-82.5 891,-71.5 789,-71.5"/>
<text text-anchor="start" x="817" y="-75.7" font-family="Times New Roman,serif" font-size="6.00">pay compensation</text>
<polygon fill="none" stroke="blue" points="8,-45.5 8,-66.5 105,-66.5 105,-45.5 8,-45.5"/>
<text text-anchor="start" x="11" y="-53.8" font-family="Times New Roman,serif" font-size="9.00">Variant 4 (1 occurrences)</text>
<polygon fill="none" stroke="blue" points="105,-45.5 105,-66.5 896,-66.5 896,-45.5 105,-45.5"/>
<polygon fill="lightgreen" stroke="transparent" points="110,-50.5 110,-61.5 226,-61.5 226,-50.5 110,-50.5"/>
<text text-anchor="start" x="148.5" y="-54.7" font-family="Times New Roman,serif" font-size="6.00">register request</text>
<polygon fill="violet" stroke="transparent" points="228,-50.5 228,-61.5 336,-61.5 336,-50.5 228,-50.5"/>
<text text-anchor="start" x="266.5" y="-55.7" font-family="Times New Roman,serif" font-weight="bold" font-size="6.00">(MM)</text>
<text text-anchor="start" x="283.5" y="-55.7" font-family="Times New Roman,serif" font-size="6.00">None</text>
<polygon fill="lightgreen" stroke="transparent" points="338,-50.5 338,-61.5 444,-61.5 444,-50.5 338,-50.5"/>
<text text-anchor="start" x="376.5" y="-54.7" font-family="Times New Roman,serif" font-size="6.00">check ticket</text>
<polygon fill="lightgreen" stroke="transparent" points="446,-50.5 446,-61.5 574,-61.5 574,-50.5 446,-50.5"/>
<text text-anchor="start" x="484.5" y="-54.7" font-family="Times New Roman,serif" font-size="6.00">examine thoroughly</text>
<polygon fill="lightgreen" stroke="transparent" points="576,-50.5 576,-61.5 669,-61.5 669,-50.5 576,-50.5"/>
<text text-anchor="start" x="614" y="-54.7" font-family="Times New Roman,serif" font-size="6.00">decide</text>
<polygon fill="violet" stroke="transparent" points="671,-50.5 671,-61.5 778,-61.5 778,-50.5 671,-50.5"/>
<text text-anchor="start" x="709" y="-55.7" font-family="Times New Roman,serif" font-weight="bold" font-size="6.00">(MM)</text>
<text text-anchor="start" x="726" y="-55.7" font-family="Times New Roman,serif" font-size="6.00">None</text>
<polygon fill="lightgreen" stroke="transparent" points="780,-50.5 780,-61.5 891,-61.5 891,-50.5 780,-50.5"/>
<text text-anchor="start" x="818" y="-54.7" font-family="Times New Roman,serif" font-size="6.00">reject request</text>
<polygon fill="none" stroke="blue" points="8,-24.5 8,-45.5 105,-45.5 105,-24.5 8,-24.5"/>
<text text-anchor="start" x="11" y="-32.8" font-family="Times New Roman,serif" font-size="9.00">Variant 5 (1 occurrences)</text>
<polygon fill="none" stroke="blue" points="105,-24.5 105,-45.5 896,-45.5 896,-24.5 105,-24.5"/>
<polygon fill="lightgreen" stroke="transparent" points="110,-29.5 110,-40.5 153,-40.5 153,-29.5 110,-29.5"/>
<text text-anchor="start" x="112" y="-33.7" font-family="Times New Roman,serif" font-size="6.00">register request</text>
<polygon fill="violet" stroke="transparent" points="155,-29.5 155,-40.5 190,-40.5 190,-29.5 155,-29.5"/>
<text text-anchor="start" x="157" y="-34.7" font-family="Times New Roman,serif" font-weight="bold" font-size="6.00">(MM)</text>
<text text-anchor="start" x="174" y="-34.7" font-family="Times New Roman,serif" font-size="6.00">None</text>
<polygon fill="lightgreen" stroke="transparent" points="192,-29.5 192,-40.5 241,-40.5 241,-29.5 192,-29.5"/>
<text text-anchor="start" x="194" y="-33.7" font-family="Times New Roman,serif" font-size="6.00">examine casually</text>
<polygon fill="lightgreen" stroke="transparent" points="243,-29.5 243,-40.5 276,-40.5 276,-29.5 243,-29.5"/>
<text text-anchor="start" x="245" y="-33.7" font-family="Times New Roman,serif" font-size="6.00">check ticket</text>
<polygon fill="lightgreen" stroke="transparent" points="278,-29.5 278,-40.5 299,-40.5 299,-29.5 278,-29.5"/>
<text text-anchor="start" x="280" y="-33.7" font-family="Times New Roman,serif" font-size="6.00">decide</text>
<polygon fill="orange" stroke="transparent" points="301,-29.5 301,-40.5 391,-40.5 391,-29.5 301,-29.5"/>
<text text-anchor="start" x="303" y="-34.7" font-family="Times New Roman,serif" font-weight="bold" font-size="6.00">(LM)</text>
<text text-anchor="start" x="318" y="-34.7" font-family="Times New Roman,serif" font-size="6.00">reinitiate the request for real</text>
<polygon fill="violet" stroke="transparent" points="393,-29.5 393,-40.5 456,-40.5 456,-29.5 393,-29.5"/>
<text text-anchor="start" x="395" y="-34.7" font-family="Times New Roman,serif" font-weight="bold" font-size="6.00">(MM)</text>
<text text-anchor="start" x="412" y="-34.7" font-family="Times New Roman,serif" font-size="6.00">reinitiate request</text>
<polygon fill="violet" stroke="transparent" points="458,-29.5 458,-40.5 493,-40.5 493,-29.5 458,-29.5"/>
<text text-anchor="start" x="460" y="-34.7" font-family="Times New Roman,serif" font-weight="bold" font-size="6.00">(MM)</text>
<text text-anchor="start" x="477" y="-34.7" font-family="Times New Roman,serif" font-size="6.00">None</text>
<polygon fill="lightgreen" stroke="transparent" points="495,-29.5 495,-40.5 528,-40.5 528,-29.5 495,-29.5"/>
<text text-anchor="start" x="497" y="-33.7" font-family="Times New Roman,serif" font-size="6.00">check ticket</text>
<polygon fill="lightgreen" stroke="transparent" points="530,-29.5 530,-40.5 579,-40.5 579,-29.5 530,-29.5"/>
<text text-anchor="start" x="532" y="-33.7" font-family="Times New Roman,serif" font-size="6.00">examine casually</text>
<polygon fill="lightgreen" stroke="transparent" points="581,-29.5 581,-40.5 602,-40.5 602,-29.5 581,-29.5"/>
<text text-anchor="start" x="583" y="-33.7" font-family="Times New Roman,serif" font-size="6.00">decide</text>
<polygon fill="violet" stroke="transparent" points="604,-29.5 604,-40.5 667,-40.5 667,-29.5 604,-29.5"/>
<text text-anchor="start" x="606" y="-34.7" font-family="Times New Roman,serif" font-weight="bold" font-size="6.00">(MM)</text>
<text text-anchor="start" x="623" y="-34.7" font-family="Times New Roman,serif" font-size="6.00">reinitiate request</text>
<polygon fill="violet" stroke="transparent" points="669,-29.5 669,-40.5 704,-40.5 704,-29.5 669,-29.5"/>
<text text-anchor="start" x="671" y="-34.7" font-family="Times New Roman,serif" font-weight="bold" font-size="6.00">(MM)</text>
<text text-anchor="start" x="688" y="-34.7" font-family="Times New Roman,serif" font-size="6.00">None</text>
<polygon fill="lightgreen" stroke="transparent" points="706,-29.5 706,-40.5 755,-40.5 755,-29.5 706,-29.5"/>
<text text-anchor="start" x="708" y="-33.7" font-family="Times New Roman,serif" font-size="6.00">examine casually</text>
<polygon fill="lightgreen" stroke="transparent" points="757,-29.5 757,-40.5 790,-40.5 790,-29.5 757,-29.5"/>
<text text-anchor="start" x="759" y="-33.7" font-family="Times New Roman,serif" font-size="6.00">check ticket</text>
<polygon fill="lightgreen" stroke="transparent" points="792,-29.5 792,-40.5 813,-40.5 813,-29.5 792,-29.5"/>
<text text-anchor="start" x="794" y="-33.7" font-family="Times New Roman,serif" font-size="6.00">decide</text>
<polygon fill="violet" stroke="transparent" points="815,-29.5 815,-40.5 850,-40.5 850,-29.5 815,-29.5"/>
<text text-anchor="start" x="817" y="-34.7" font-family="Times New Roman,serif" font-weight="bold" font-size="6.00">(MM)</text>
<text text-anchor="start" x="834" y="-34.7" font-family="Times New Roman,serif" font-size="6.00">None</text>
<polygon fill="lightgreen" stroke="transparent" points="852,-29.5 852,-40.5 891,-40.5 891,-29.5 852,-29.5"/>
<text text-anchor="start" x="854" y="-33.7" font-family="Times New Roman,serif" font-size="6.00">reject request</text>
<polygon fill="none" stroke="blue" points="8,-3.5 8,-24.5 105,-24.5 105,-3.5 8,-3.5"/>
<text text-anchor="start" x="11" y="-11.8" font-family="Times New Roman,serif" font-size="9.00">Variant 6 (1 occurrences)</text>
<polygon fill="none" stroke="blue" points="105,-3.5 105,-24.5 896,-24.5 896,-3.5 105,-3.5"/>
<polygon fill="lightgreen" stroke="transparent" points="110,-8.5 110,-19.5 204,-19.5 204,-8.5 110,-8.5"/>
<text text-anchor="start" x="137.5" y="-12.7" font-family="Times New Roman,serif" font-size="6.00">register request</text>
<polygon fill="violet" stroke="transparent" points="206,-8.5 206,-19.5 292,-19.5 292,-8.5 206,-8.5"/>
<text text-anchor="start" x="233.5" y="-13.7" font-family="Times New Roman,serif" font-weight="bold" font-size="6.00">(MM)</text>
<text text-anchor="start" x="250.5" y="-13.7" font-family="Times New Roman,serif" font-size="6.00">None</text>
<polygon fill="violet" stroke="transparent" points="294,-8.5 294,-19.5 411,-19.5 411,-8.5 294,-8.5"/>
<text text-anchor="start" x="321.5" y="-13.7" font-family="Times New Roman,serif" font-weight="bold" font-size="6.00">(MM)</text>
<text text-anchor="start" x="338.5" y="-13.7" font-family="Times New Roman,serif" font-size="6.00">examine casually</text>
<polygon fill="lightgreen" stroke="transparent" points="413,-8.5 413,-19.5 497,-19.5 497,-8.5 413,-8.5"/>
<text text-anchor="start" x="440.5" y="-12.7" font-family="Times New Roman,serif" font-size="6.00">check ticket</text>
<polygon fill="violet" stroke="transparent" points="499,-8.5 499,-19.5 587,-19.5 587,-8.5 499,-8.5"/>
<text text-anchor="start" x="526" y="-13.7" font-family="Times New Roman,serif" font-weight="bold" font-size="6.00">(MM)</text>
<text text-anchor="start" x="543" y="-13.7" font-family="Times New Roman,serif" font-size="6.00">decide</text>
<polygon fill="orange" stroke="transparent" points="589,-8.5 589,-19.5 702,-19.5 702,-8.5 589,-8.5"/>
<text text-anchor="start" x="616" y="-13.7" font-family="Times New Roman,serif" font-weight="bold" font-size="6.00">(LM)</text>
<text text-anchor="start" x="631" y="-13.7" font-family="Times New Roman,serif" font-size="6.00">decide something</text>
<polygon fill="violet" stroke="transparent" points="704,-8.5 704,-19.5 789,-19.5 789,-8.5 704,-8.5"/>
<text text-anchor="start" x="731" y="-13.7" font-family="Times New Roman,serif" font-weight="bold" font-size="6.00">(MM)</text>
<text text-anchor="start" x="748" y="-13.7" font-family="Times New Roman,serif" font-size="6.00">None</text>
<polygon fill="lightgreen" stroke="transparent" points="791,-8.5 791,-19.5 891,-19.5 891,-8.5 791,-8.5"/>
<text text-anchor="start" x="818" y="-12.7" font-family="Times New Roman,serif" font-size="6.00">pay compensation</text>
</g>
</g>
</svg>
