<?xml version="1.0" encoding="UTF-8" standalone="no"?>
<!DOCTYPE svg PUBLIC "-//W3C//DTD SVG 1.1//EN"
 "http://www.w3.org/Graphics/SVG/1.1/DTD/svg11.dtd">
<!-- Generated by graphviz version 2.50.0 (20211204.2007)
 -->
<!-- Pages: 1 -->
<svg width="667pt" height="268pt"
 viewBox="0.00 0.00 667.00 268.00" xmlns="http://www.w3.org/2000/svg" xmlns:xlink="http://www.w3.org/1999/xlink">
<g id="graph0" class="graph" transform="scale(1 1) rotate(0) translate(4 264)">
<polygon fill="white" stroke="transparent" points="-4,4 -4,-264 663,-264 663,4 -4,4"/>
<!-- tbl -->
<g id="node1" class="node">
<title>tbl</title>
<polygon fill="none" stroke="blue" points="8.5,-235 8.5,-256 109.5,-256 109.5,-235 8.5,-235"/>
<text text-anchor="start" x="39" y="-241.8" font-family="Times New Roman,serif" font-size="14.00">Variant</text>
<polygon fill="none" stroke="blue" points="109.5,-235 109.5,-256 651.5,-256 651.5,-235 109.5,-235"/>
<text text-anchor="start" x="352" y="-241.8" font-family="Times New Roman,serif" font-size="14.00">Alignment</text>
<polygon fill="none" stroke="blue" points="8.5,-214 8.5,-235 109.5,-235 109.5,-214 8.5,-214"/>
<text text-anchor="start" x="11.5" y="-222.3" font-family="Times New Roman,serif" font-size="9.00">Variant 1 (38 occurrences)</text>
<polygon fill="none" stroke="blue" points="109.5,-214 109.5,-235 651.5,-235 651.5,-214 109.5,-214"/>
<polygon fill="lightgreen" stroke="transparent" points="114.5,-219 114.5,-230 242.5,-230 242.5,-219 114.5,-219"/>
<text text-anchor="start" x="157" y="-223.2" font-family="Times New Roman,serif" font-size="6.00">A_SUBMITTED</text>
<polygon fill="lightgreen" stroke="transparent" points="244.5,-219 244.5,-230 396.5,-230 396.5,-219 244.5,-219"/>
<text text-anchor="start" x="287" y="-223.2" font-family="Times New Roman,serif" font-size="6.00">A_PARTLYSUBMITTED</text>
<polygon fill="violet" stroke="transparent" points="398.5,-219 398.5,-230 514.5,-230 514.5,-219 398.5,-219"/>
<text text-anchor="start" x="441" y="-224.2" font-family="Times New Roman,serif" font-weight="bold" font-size="6.00">(MM)</text>
<text text-anchor="start" x="458" y="-224.2" font-family="Times New Roman,serif" font-size="6.00">None</text>
<polygon fill="lightgreen" stroke="transparent" points="516.5,-219 516.5,-230 646.5,-230 646.5,-219 516.5,-219"/>
<text text-anchor="start" x="559" y="-223.2" font-family="Times New Roman,serif" font-size="6.00">A_DECLINED_4</text>
<polygon fill="none" stroke="blue" points="8.5,-193 8.5,-214 109.5,-214 109.5,-193 8.5,-193"/>
<text text-anchor="start" x="11.5" y="-201.3" font-family="Times New Roman,serif" font-size="9.00">Variant 2 (13 occurrences)</text>
<polygon fill="none" stroke="blue" points="109.5,-193 109.5,-214 651.5,-214 651.5,-193 109.5,-193"/>
<polygon fill="lightgreen" stroke="transparent" points="114.5,-198 114.5,-209 186.5,-209 186.5,-198 114.5,-198"/>
<text text-anchor="start" x="129" y="-202.2" font-family="Times New Roman,serif" font-size="6.00">A_SUBMITTED</text>
<polygon fill="lightgreen" stroke="transparent" points="188.5,-198 188.5,-209 284.5,-209 284.5,-198 188.5,-198"/>
<text text-anchor="start" x="203" y="-202.2" font-family="Times New Roman,serif" font-size="6.00">A_PARTLYSUBMITTED</text>
<polygon fill="lightgreen" stroke="transparent" points="286.5,-198 286.5,-209 365.5,-209 365.5,-198 286.5,-198"/>
<text text-anchor="start" x="300.5" y="-202.2" font-family="Times New Roman,serif" font-size="6.00">A_PREACCEPTED</text>
<polygon fill="lightgreen" stroke="transparent" points="367.5,-198 367.5,-209 435.5,-209 435.5,-198 367.5,-198"/>
<text text-anchor="start" x="381.5" y="-202.2" font-family="Times New Roman,serif" font-size="6.00">A_ACCEPTED</text>
<polygon fill="lightgreen" stroke="transparent" points="437.5,-198 437.5,-209 505.5,-209 505.5,-198 437.5,-198"/>
<text text-anchor="start" x="451.5" y="-202.2" font-family="Times New Roman,serif" font-size="6.00">A_FINALIZED</text>
<polygon fill="violet" stroke="transparent" points="507.5,-198 507.5,-209 566.5,-209 566.5,-198 507.5,-198"/>
<text text-anchor="start" x="521.5" y="-203.2" font-family="Times New Roman,serif" font-weight="bold" font-size="6.00">(MM)</text>
<text text-anchor="start" x="538.5" y="-203.2" font-family="Times New Roman,serif" font-size="6.00">None</text>
<polygon fill="lightgreen" stroke="transparent" points="568.5,-198 568.5,-209 646.5,-209 646.5,-198 568.5,-198"/>
<text text-anchor="start" x="582.5" y="-202.2" font-family="Times New Roman,serif" font-size="6.00">A_CANCELLED_1</text>
<polygon fill="none" stroke="blue" points="8.5,-172 8.5,-193 109.5,-193 109.5,-172 8.5,-172"/>
<text text-anchor="start" x="11.5" y="-180.3" font-family="Times New Roman,serif" font-size="9.00">Variant 3 (11 occurrences)</text>
<polygon fill="none" stroke="blue" points="109.5,-172 109.5,-193 651.5,-193 651.5,-172 109.5,-172"/>
<polygon fill="lightgreen" stroke="transparent" points="114.5,-177 114.5,-188 215.5,-188 215.5,-177 114.5,-177"/>
<text text-anchor="start" x="143.5" y="-181.2" font-family="Times New Roman,serif" font-size="6.00">A_SUBMITTED</text>
<polygon fill="lightgreen" stroke="transparent" points="217.5,-177 217.5,-188 342.5,-188 342.5,-177 217.5,-177"/>
<text text-anchor="start" x="246.5" y="-181.2" font-family="Times New Roman,serif" font-size="6.00">A_PARTLYSUBMITTED</text>
<polygon fill="lightgreen" stroke="transparent" points="344.5,-177 344.5,-188 452.5,-188 452.5,-177 344.5,-177"/>
<text text-anchor="start" x="373" y="-181.2" font-family="Times New Roman,serif" font-size="6.00">A_PREACCEPTED</text>
<polygon fill="violet" stroke="transparent" points="454.5,-177 454.5,-188 542.5,-188 542.5,-177 454.5,-177"/>
<text text-anchor="start" x="483" y="-182.2" font-family="Times New Roman,serif" font-weight="bold" font-size="6.00">(MM)</text>
<text text-anchor="start" x="500" y="-182.2" font-family="Times New Roman,serif" font-size="6.00">None</text>
<polygon fill="lightgreen" stroke="transparent" points="544.5,-177 544.5,-188 646.5,-188 646.5,-177 544.5,-177"/>
<text text-anchor="start" x="573" y="-181.2" font-family="Times New Roman,serif" font-size="6.00">A_DECLINED_4</text>
<polygon fill="none" stroke="blue" points="8.5,-151 8.5,-172 109.5,-172 109.5,-151 8.5,-151"/>
<text text-anchor="start" x="11.5" y="-159.3" font-family="Times New Roman,serif" font-size="9.00">Variant 4 (10 occurrences)</text>
<polygon fill="none" stroke="blue" points="109.5,-151 109.5,-172 651.5,-172 651.5,-151 109.5,-151"/>
<polygon fill="lightgreen" stroke="transparent" points="114.5,-156 114.5,-167 186.5,-167 186.5,-156 114.5,-156"/>
<text text-anchor="start" x="129" y="-160.2" font-family="Times New Roman,serif" font-size="6.00">A_SUBMITTED</text>
<polygon fill="lightgreen" stroke="transparent" points="188.5,-156 188.5,-167 284.5,-167 284.5,-156 188.5,-156"/>
<text text-anchor="start" x="203" y="-160.2" font-family="Times New Roman,serif" font-size="6.00">A_PARTLYSUBMITTED</text>
<polygon fill="lightgreen" stroke="transparent" points="286.5,-156 286.5,-167 366.5,-167 366.5,-156 286.5,-156"/>
<text text-anchor="start" x="301" y="-160.2" font-family="Times New Roman,serif" font-size="6.00">A_PREACCEPTED</text>
<polygon fill="lightgreen" stroke="transparent" points="368.5,-156 368.5,-167 437.5,-167 437.5,-156 368.5,-156"/>
<text text-anchor="start" x="383" y="-160.2" font-family="Times New Roman,serif" font-size="6.00">A_ACCEPTED</text>
<polygon fill="lightgreen" stroke="transparent" points="439.5,-156 439.5,-167 508.5,-167 508.5,-156 439.5,-156"/>
<text text-anchor="start" x="454" y="-160.2" font-family="Times New Roman,serif" font-size="6.00">A_FINALIZED</text>
<polygon fill="violet" stroke="transparent" points="510.5,-156 510.5,-167 570.5,-167 570.5,-156 510.5,-156"/>
<text text-anchor="start" x="525" y="-161.2" font-family="Times New Roman,serif" font-weight="bold" font-size="6.00">(MM)</text>
<text text-anchor="start" x="542" y="-161.2" font-family="Times New Roman,serif" font-size="6.00">None</text>
<polygon fill="lightgreen" stroke="transparent" points="572.5,-156 572.5,-167 646.5,-167 646.5,-156 572.5,-156"/>
<text text-anchor="start" x="587" y="-160.2" font-family="Times New Roman,serif" font-size="6.00">A_DECLINED_4</text>
<polygon fill="none" stroke="blue" points="8.5,-130 8.5,-151 109.5,-151 109.5,-130 8.5,-130"/>
<text text-anchor="start" x="13.5" y="-138.3" font-family="Times New Roman,serif" font-size="9.00">Variant 5 (9 occurrences)</text>
<polygon fill="none" stroke="blue" points="109.5,-130 109.5,-151 651.5,-151 651.5,-130 109.5,-130"/>
<polygon fill="lightgreen" stroke="transparent" points="114.5,-135 114.5,-146 214.5,-146 214.5,-135 114.5,-135"/>
<text text-anchor="start" x="143" y="-139.2" font-family="Times New Roman,serif" font-size="6.00">A_SUBMITTED</text>
<polygon fill="lightgreen" stroke="transparent" points="216.5,-135 216.5,-146 340.5,-146 340.5,-135 216.5,-135"/>
<text text-anchor="start" x="245" y="-139.2" font-family="Times New Roman,serif" font-size="6.00">A_PARTLYSUBMITTED</text>
<polygon fill="lightgreen" stroke="transparent" points="342.5,-135 342.5,-146 449.5,-146 449.5,-135 342.5,-135"/>
<text text-anchor="start" x="370.5" y="-139.2" font-family="Times New Roman,serif" font-size="6.00">A_PREACCEPTED</text>
<polygon fill="violet" stroke="transparent" points="451.5,-135 451.5,-146 538.5,-146 538.5,-135 451.5,-135"/>
<text text-anchor="start" x="479.5" y="-140.2" font-family="Times New Roman,serif" font-weight="bold" font-size="6.00">(MM)</text>
<text text-anchor="start" x="496.5" y="-140.2" font-family="Times New Roman,serif" font-size="6.00">None</text>
<polygon fill="lightgreen" stroke="transparent" points="540.5,-135 540.5,-146 646.5,-146 646.5,-135 540.5,-135"/>
<text text-anchor="start" x="568.5" y="-139.2" font-family="Times New Roman,serif" font-size="6.00">A_CANCELLED_1</text>
<polygon fill="none" stroke="blue" points="8.5,-109 8.5,-130 109.5,-130 109.5,-109 8.5,-109"/>
<text text-anchor="start" x="13.5" y="-117.3" font-family="Times New Roman,serif" font-size="9.00">Variant 6 (7 occurrences)</text>
<polygon fill="none" stroke="blue" points="109.5,-109 109.5,-130 651.5,-130 651.5,-109 109.5,-109"/>
<polygon fill="lightgreen" stroke="transparent" points="114.5,-114 114.5,-125 170.5,-125 170.5,-114 114.5,-114"/>
<text text-anchor="start" x="121" y="-118.2" font-family="Times New Roman,serif" font-size="6.00">A_SUBMITTED</text>
<polygon fill="lightgreen" stroke="transparent" points="172.5,-114 172.5,-125 252.5,-125 252.5,-114 172.5,-114"/>
<text text-anchor="start" x="179" y="-118.2" font-family="Times New Roman,serif" font-size="6.00">A_PARTLYSUBMITTED</text>
<polygon fill="lightgreen" stroke="transparent" points="254.5,-114 254.5,-125 318.5,-125 318.5,-114 254.5,-114"/>
<text text-anchor="start" x="261" y="-118.2" font-family="Times New Roman,serif" font-size="6.00">A_PREACCEPTED</text>
<polygon fill="lightgreen" stroke="transparent" points="320.5,-114 320.5,-125 373.5,-125 373.5,-114 320.5,-114"/>
<text text-anchor="start" x="327" y="-118.2" font-family="Times New Roman,serif" font-size="6.00">A_ACCEPTED</text>
<polygon fill="lightgreen" stroke="transparent" points="375.5,-114 375.5,-125 428.5,-125 428.5,-114 375.5,-114"/>
<text text-anchor="start" x="382" y="-118.2" font-family="Times New Roman,serif" font-size="6.00">A_FINALIZED</text>
<polygon fill="lightgreen" stroke="transparent" points="430.5,-114 430.5,-125 484.5,-125 484.5,-114 430.5,-114"/>
<text text-anchor="start" x="437" y="-118.2" font-family="Times New Roman,serif" font-size="6.00">A_APPROVED</text>
<polygon fill="lightgreen" stroke="transparent" points="486.5,-114 486.5,-125 544.5,-125 544.5,-114 486.5,-114"/>
<text text-anchor="start" x="493" y="-118.2" font-family="Times New Roman,serif" font-size="6.00">A_REGISTERED</text>
<polygon fill="lightgreen" stroke="transparent" points="546.5,-114 546.5,-125 601.5,-125 601.5,-114 546.5,-114"/>
<text text-anchor="start" x="552.5" y="-118.2" font-family="Times New Roman,serif" font-size="6.00">A_ACTIVATED</text>
<polygon fill="violet" stroke="transparent" points="603.5,-114 603.5,-125 646.5,-125 646.5,-114 603.5,-114"/>
<text text-anchor="start" x="609.5" y="-119.2" font-family="Times New Roman,serif" font-weight="bold" font-size="6.00">(MM)</text>
<text text-anchor="start" x="626.5" y="-119.2" font-family="Times New Roman,serif" font-size="6.00">None</text>
<polygon fill="none" stroke="blue" points="8.5,-88 8.5,-109 109.5,-109 109.5,-88 8.5,-88"/>
<text text-anchor="start" x="13.5" y="-96.3" font-family="Times New Roman,serif" font-size="9.00">Variant 7 (4 occurrences)</text>
<polygon fill="none" stroke="blue" points="109.5,-88 109.5,-109 651.5,-109 651.5,-88 109.5,-88"/>
<polygon fill="lightgreen" stroke="transparent" points="114.5,-93 114.5,-104 161.5,-104 161.5,-93 114.5,-93"/>
<text text-anchor="start" x="116.5" y="-97.2" font-family="Times New Roman,serif" font-size="6.00">A_SUBMITTED</text>
<polygon fill="lightgreen" stroke="transparent" points="163.5,-93 163.5,-104 234.5,-104 234.5,-93 163.5,-93"/>
<text text-anchor="start" x="165.5" y="-97.2" font-family="Times New Roman,serif" font-size="6.00">A_PARTLYSUBMITTED</text>
<polygon fill="lightgreen" stroke="transparent" points="236.5,-93 236.5,-104 291.5,-104 291.5,-93 236.5,-93"/>
<text text-anchor="start" x="238.5" y="-97.2" font-family="Times New Roman,serif" font-size="6.00">A_PREACCEPTED</text>
<polygon fill="lightgreen" stroke="transparent" points="293.5,-93 293.5,-104 337.5,-104 337.5,-93 293.5,-93"/>
<text text-anchor="start" x="295.5" y="-97.2" font-family="Times New Roman,serif" font-size="6.00">A_ACCEPTED</text>
<polygon fill="lightgreen" stroke="transparent" points="339.5,-93 339.5,-104 383.5,-104 383.5,-93 339.5,-93"/>
<text text-anchor="start" x="341.5" y="-97.2" font-family="Times New Roman,serif" font-size="6.00">A_FINALIZED</text>
<polygon fill="violet" stroke="transparent" points="385.5,-93 385.5,-104 447.5,-104 447.5,-93 385.5,-93"/>
<text text-anchor="start" x="387.5" y="-98.2" font-family="Times New Roman,serif" font-weight="bold" font-size="6.00">(MM)</text>
<text text-anchor="start" x="404.5" y="-98.2" font-family="Times New Roman,serif" font-size="6.00">A_APPROVED</text>
<polygon fill="lightgreen" stroke="transparent" points="449.5,-93 449.5,-104 498.5,-104 498.5,-93 449.5,-93"/>
<text text-anchor="start" x="451.5" y="-97.2" font-family="Times New Roman,serif" font-size="6.00">A_REGISTERED</text>
<polygon fill="orange" stroke="transparent" points="500.5,-93 500.5,-104 560.5,-104 560.5,-93 500.5,-93"/>
<text text-anchor="start" x="502.5" y="-98.2" font-family="Times New Roman,serif" font-weight="bold" font-size="6.00">(LM)</text>
<text text-anchor="start" x="517.5" y="-98.2" font-family="Times New Roman,serif" font-size="6.00">A_APPROVED</text>
<polygon fill="lightgreen" stroke="transparent" points="562.5,-93 562.5,-104 609.5,-104 609.5,-93 562.5,-93"/>
<text text-anchor="start" x="564.5" y="-97.2" font-family="Times New Roman,serif" font-size="6.00">A_ACTIVATED</text>
<polygon fill="violet" stroke="transparent" points="611.5,-93 611.5,-104 646.5,-104 646.5,-93 611.5,-93"/>
<text text-anchor="start" x="613.5" y="-98.2" font-family="Times New Roman,serif" font-weight="bold" font-size="6.00">(MM)</text>
<text text-anchor="start" x="630.5" y="-98.2" font-family="Times New Roman,serif" font-size="6.00">None</text>
<polygon fill="none" stroke="blue" points="8.5,-67 8.5,-88 109.5,-88 109.5,-67 8.5,-67"/>
<text text-anchor="start" x="13.5" y="-75.3" font-family="Times New Roman,serif" font-size="9.00">Variant 8 (3 occurrences)</text>
<polygon fill="none" stroke="blue" points="109.5,-67 109.5,-88 651.5,-88 651.5,-67 109.5,-67"/>
<polygon fill="lightgreen" stroke="transparent" points="114.5,-72 114.5,-83 161.5,-83 161.5,-72 114.5,-72"/>
<text text-anchor="start" x="116.5" y="-76.2" font-family="Times New Roman,serif" font-size="6.00">A_SUBMITTED</text>
<polygon fill="lightgreen" stroke="transparent" points="163.5,-72 163.5,-83 234.5,-83 234.5,-72 163.5,-72"/>
<text text-anchor="start" x="165.5" y="-76.2" font-family="Times New Roman,serif" font-size="6.00">A_PARTLYSUBMITTED</text>
<polygon fill="lightgreen" stroke="transparent" points="236.5,-72 236.5,-83 291.5,-83 291.5,-72 236.5,-72"/>
<text text-anchor="start" x="238.5" y="-76.2" font-family="Times New Roman,serif" font-size="6.00">A_PREACCEPTED</text>
<polygon fill="lightgreen" stroke="transparent" points="293.5,-72 293.5,-83 337.5,-83 337.5,-72 293.5,-72"/>
<text text-anchor="start" x="295.5" y="-76.2" font-family="Times New Roman,serif" font-size="6.00">A_ACCEPTED</text>
<polygon fill="lightgreen" stroke="transparent" points="339.5,-72 339.5,-83 383.5,-83 383.5,-72 339.5,-72"/>
<text text-anchor="start" x="341.5" y="-76.2" font-family="Times New Roman,serif" font-size="6.00">A_FINALIZED</text>
<polygon fill="violet" stroke="transparent" points="385.5,-72 385.5,-83 447.5,-83 447.5,-72 385.5,-72"/>
<text text-anchor="start" x="387.5" y="-77.2" font-family="Times New Roman,serif" font-weight="bold" font-size="6.00">(MM)</text>
<text text-anchor="start" x="404.5" y="-77.2" font-family="Times New Roman,serif" font-size="6.00">A_APPROVED</text>
<polygon fill="lightgreen" stroke="transparent" points="449.5,-72 449.5,-83 498.5,-83 498.5,-72 449.5,-72"/>
<text text-anchor="start" x="451.5" y="-76.2" font-family="Times New Roman,serif" font-size="6.00">A_REGISTERED</text>
<polygon fill="lightgreen" stroke="transparent" points="500.5,-72 500.5,-83 547.5,-83 547.5,-72 500.5,-72"/>
<text text-anchor="start" x="502.5" y="-76.2" font-family="Times New Roman,serif" font-size="6.00">A_ACTIVATED</text>
<polygon fill="orange" stroke="transparent" points="549.5,-72 549.5,-83 609.5,-83 609.5,-72 549.5,-72"/>
<text text-anchor="start" x="551.5" y="-77.2" font-family="Times New Roman,serif" font-weight="bold" font-size="6.00">(LM)</text>
<text text-anchor="start" x="566.5" y="-77.2" font-family="Times New Roman,serif" font-size="6.00">A_APPROVED</text>
<polygon fill="violet" stroke="transparent" points="611.5,-72 611.5,-83 646.5,-83 646.5,-72 611.5,-72"/>
<text text-anchor="start" x="613.5" y="-77.2" font-family="Times New Roman,serif" font-weight="bold" font-size="6.00">(MM)</text>
<text text-anchor="start" x="630.5" y="-77.2" font-family="Times New Roman,serif" font-size="6.00">None</text>
<polygon fill="none" stroke="blue" points="8.5,-46 8.5,-67 109.5,-67 109.5,-46 8.5,-46"/>
<text text-anchor="start" x="13.5" y="-54.3" font-family="Times New Roman,serif" font-size="9.00">Variant 9 (3 occurrences)</text>
<polygon fill="none" stroke="blue" points="109.5,-46 109.5,-67 651.5,-67 651.5,-46 109.5,-46"/>
<polygon fill="lightgreen" stroke="transparent" points="114.5,-51 114.5,-62 170.5,-62 170.5,-51 114.5,-51"/>
<text text-anchor="start" x="121" y="-55.2" font-family="Times New Roman,serif" font-size="6.00">A_SUBMITTED</text>
<polygon fill="lightgreen" stroke="transparent" points="172.5,-51 172.5,-62 252.5,-62 252.5,-51 172.5,-51"/>
<text text-anchor="start" x="179" y="-55.2" font-family="Times New Roman,serif" font-size="6.00">A_PARTLYSUBMITTED</text>
<polygon fill="lightgreen" stroke="transparent" points="254.5,-51 254.5,-62 318.5,-62 318.5,-51 254.5,-51"/>
<text text-anchor="start" x="261" y="-55.2" font-family="Times New Roman,serif" font-size="6.00">A_PREACCEPTED</text>
<polygon fill="lightgreen" stroke="transparent" points="320.5,-51 320.5,-62 373.5,-62 373.5,-51 320.5,-51"/>
<text text-anchor="start" x="327" y="-55.2" font-family="Times New Roman,serif" font-size="6.00">A_ACCEPTED</text>
<polygon fill="lightgreen" stroke="transparent" points="375.5,-51 375.5,-62 428.5,-62 428.5,-51 375.5,-51"/>
<text text-anchor="start" x="382" y="-55.2" font-family="Times New Roman,serif" font-size="6.00">A_FINALIZED</text>
<polygon fill="lightgreen" stroke="transparent" points="430.5,-51 430.5,-62 484.5,-62 484.5,-51 430.5,-51"/>
<text text-anchor="start" x="437" y="-55.2" font-family="Times New Roman,serif" font-size="6.00">A_APPROVED</text>
<polygon fill="lightgreen" stroke="transparent" points="486.5,-51 486.5,-62 542.5,-62 542.5,-51 486.5,-51"/>
<text text-anchor="start" x="493" y="-55.2" font-family="Times New Roman,serif" font-size="6.00">A_ACTIVATED</text>
<polygon fill="lightgreen" stroke="transparent" points="544.5,-51 544.5,-62 601.5,-62 601.5,-51 544.5,-51"/>
<text text-anchor="start" x="550.5" y="-55.2" font-family="Times New Roman,serif" font-size="6.00">A_REGISTERED</text>
<polygon fill="violet" stroke="transparent" points="603.5,-51 603.5,-62 646.5,-62 646.5,-51 603.5,-51"/>
<text text-anchor="start" x="609.5" y="-56.2" font-family="Times New Roman,serif" font-weight="bold" font-size="6.00">(MM)</text>
<text text-anchor="start" x="626.5" y="-56.2" font-family="Times New Roman,serif" font-size="6.00">None</text>
<polygon fill="none" stroke="blue" points="8.5,-25 8.5,-46 109.5,-46 109.5,-25 8.5,-25"/>
<text text-anchor="start" x="11.5" y="-33.3" font-family="Times New Roman,serif" font-size="9.00">Variant 10 (1 occurrences)</text>
<polygon fill="none" stroke="blue" points="109.5,-25 109.5,-46 651.5,-46 651.5,-25 109.5,-25"/>
<polygon fill="lightgreen" stroke="transparent" points="114.5,-30 114.5,-41 161.5,-41 161.5,-30 114.5,-30"/>
<text text-anchor="start" x="116.5" y="-34.2" font-family="Times New Roman,serif" font-size="6.00">A_SUBMITTED</text>
<polygon fill="lightgreen" stroke="transparent" points="163.5,-30 163.5,-41 234.5,-41 234.5,-30 163.5,-30"/>
<text text-anchor="start" x="165.5" y="-34.2" font-family="Times New Roman,serif" font-size="6.00">A_PARTLYSUBMITTED</text>
<polygon fill="lightgreen" stroke="transparent" points="236.5,-30 236.5,-41 291.5,-41 291.5,-30 236.5,-30"/>
<text text-anchor="start" x="238.5" y="-34.2" font-family="Times New Roman,serif" font-size="6.00">A_PREACCEPTED</text>
<polygon fill="lightgreen" stroke="transparent" points="293.5,-30 293.5,-41 337.5,-41 337.5,-30 293.5,-30"/>
<text text-anchor="start" x="295.5" y="-34.2" font-family="Times New Roman,serif" font-size="6.00">A_ACCEPTED</text>
<polygon fill="lightgreen" stroke="transparent" points="339.5,-30 339.5,-41 383.5,-41 383.5,-30 339.5,-30"/>
<text text-anchor="start" x="341.5" y="-34.2" font-family="Times New Roman,serif" font-size="6.00">A_FINALIZED</text>
<polygon fill="violet" stroke="transparent" points="385.5,-30 385.5,-41 447.5,-41 447.5,-30 385.5,-30"/>
<text text-anchor="start" x="387.5" y="-35.2" font-family="Times New Roman,serif" font-weight="bold" font-size="6.00">(MM)</text>
<text text-anchor="start" x="404.5" y="-35.2" font-family="Times New Roman,serif" font-size="6.00">A_APPROVED</text>
<polygon fill="lightgreen" stroke="transparent" points="449.5,-30 449.5,-41 496.5,-41 496.5,-30 449.5,-30"/>
<text text-anchor="start" x="451.5" y="-34.2" font-family="Times New Roman,serif" font-size="6.00">A_ACTIVATED</text>
<polygon fill="lightgreen" stroke="transparent" points="498.5,-30 498.5,-41 547.5,-41 547.5,-30 498.5,-30"/>
<text text-anchor="start" x="500.5" y="-34.2" font-family="Times New Roman,serif" font-size="6.00">A_REGISTERED</text>
<polygon fill="orange" stroke="transparent" points="549.5,-30 549.5,-41 609.5,-41 609.5,-30 549.5,-30"/>
<text text-anchor="start" x="551.5" y="-35.2" font-family="Times New Roman,serif" font-weight="bold" font-size="6.00">(LM)</text>
<text text-anchor="start" x="566.5" y="-35.2" font-family="Times New Roman,serif" font-size="6.00">A_APPROVED</text>
<polygon fill="violet" stroke="transparent" points="611.5,-30 611.5,-41 646.5,-41 646.5,-30 611.5,-30"/>
<text text-anchor="start" x="613.5" y="-35.2" font-family="Times New Roman,serif" font-weight="bold" font-size="6.00">(MM)</text>
<text text-anchor="start" x="630.5" y="-35.2" font-family="Times New Roman,serif" font-size="6.00">None</text>
<polygon fill="none" stroke="blue" points="8.5,-4 8.5,-25 109.5,-25 109.5,-4 8.5,-4"/>
<text text-anchor="start" x="11.5" y="-12.3" font-family="Times New Roman,serif" font-size="9.00">Variant 11 (1 occurrences)</text>
<polygon fill="none" stroke="blue" points="109.5,-4 109.5,-25 651.5,-25 651.5,-4 109.5,-4"/>
<polygon fill="lightgreen" stroke="transparent" points="114.5,-9 114.5,-20 161.5,-20 161.5,-9 114.5,-9"/>
<text text-anchor="start" x="116.5" y="-13.2" font-family="Times New Roman,serif" font-size="6.00">A_SUBMITTED</text>
<polygon fill="lightgreen" stroke="transparent" points="163.5,-9 163.5,-20 234.5,-20 234.5,-9 163.5,-9"/>
<text text-anchor="start" x="165.5" y="-13.2" font-family="Times New Roman,serif" font-size="6.00">A_PARTLYSUBMITTED</text>
<polygon fill="lightgreen" stroke="transparent" points="236.5,-9 236.5,-20 291.5,-20 291.5,-9 236.5,-9"/>
<text text-anchor="start" x="238.5" y="-13.2" font-family="Times New Roman,serif" font-size="6.00">A_PREACCEPTED</text>
<polygon fill="lightgreen" stroke="transparent" points="293.5,-9 293.5,-20 337.5,-20 337.5,-9 293.5,-9"/>
<text text-anchor="start" x="295.5" y="-13.2" font-family="Times New Roman,serif" font-size="6.00">A_ACCEPTED</text>
<polygon fill="lightgreen" stroke="transparent" points="339.5,-9 339.5,-20 383.5,-20 383.5,-9 339.5,-9"/>
<text text-anchor="start" x="341.5" y="-13.2" font-family="Times New Roman,serif" font-size="6.00">A_FINALIZED</text>
<polygon fill="violet" stroke="transparent" points="385.5,-9 385.5,-20 447.5,-20 447.5,-9 385.5,-9"/>
<text text-anchor="start" x="387.5" y="-14.2" font-family="Times New Roman,serif" font-weight="bold" font-size="6.00">(MM)</text>
<text text-anchor="start" x="404.5" y="-14.2" font-family="Times New Roman,serif" font-size="6.00">A_APPROVED</text>
<polygon fill="lightgreen" stroke="transparent" points="449.5,-9 449.5,-20 496.5,-20 496.5,-9 449.5,-9"/>
<text text-anchor="start" x="451.5" y="-13.2" font-family="Times New Roman,serif" font-size="6.00">A_ACTIVATED</text>
<polygon fill="orange" stroke="transparent" points="498.5,-9 498.5,-20 558.5,-20 558.5,-9 498.5,-9"/>
<text text-anchor="start" x="500.5" y="-14.2" font-family="Times New Roman,serif" font-weight="bold" font-size="6.00">(LM)</text>
<text text-anchor="start" x="515.5" y="-14.2" font-family="Times New Roman,serif" font-size="6.00">A_APPROVED</text>
<polygon fill="lightgreen" stroke="transparent" points="560.5,-9 560.5,-20 609.5,-20 609.5,-9 560.5,-9"/>
<text text-anchor="start" x="562.5" y="-13.2" font-family="Times New Roman,serif" font-size="6.00">A_REGISTERED</text>
<polygon fill="violet" stroke="transparent" points="611.5,-9 611.5,-20 646.5,-20 646.5,-9 611.5,-9"/>
<text text-anchor="start" x="613.5" y="-14.2" font-family="Times New Roman,serif" font-weight="bold" font-size="6.00">(MM)</text>
<text text-anchor="start" x="630.5" y="-14.2" font-family="Times New Roman,serif" font-size="6.00">None</text>
</g>
</g>
</svg>
