<?xml version="1.0" encoding="UTF-8" standalone="no"?>
<!DOCTYPE svg PUBLIC "-//W3C//DTD SVG 1.1//EN"
 "http://www.w3.org/Graphics/SVG/1.1/DTD/svg11.dtd">
<!-- Generated by graphviz version 2.50.0 (20211204.2007)
 -->
<!-- Pages: 1 -->
<svg width="632pt" height="268pt"
 viewBox="0.00 0.00 632.00 268.00" xmlns="http://www.w3.org/2000/svg" xmlns:xlink="http://www.w3.org/1999/xlink">
<g id="graph0" class="graph" transform="scale(1 1) rotate(0) translate(4 264)">
<polygon fill="white" stroke="transparent" points="-4,4 -4,-264 628,-264 628,4 -4,4"/>
<!-- tbl -->
<g id="node1" class="node">
<title>tbl</title>
<polygon fill="none" stroke="blue" points="8,-235 8,-256 109,-256 109,-235 8,-235"/>
<text text-anchor="start" x="38.5" y="-241.8" font-family="Times New Roman,serif" font-size="14.00">Variant</text>
<polygon fill="none" stroke="blue" points="109,-235 109,-256 616,-256 616,-235 109,-235"/>
<text text-anchor="start" x="334" y="-241.8" font-family="Times New Roman,serif" font-size="14.00">Alignment</text>
<polygon fill="none" stroke="blue" points="8,-214 8,-235 109,-235 109,-214 8,-214"/>
<text text-anchor="start" x="11" y="-222.3" font-family="Times New Roman,serif" font-size="9.00">Variant 1 (38 occurrences)</text>
<polygon fill="none" stroke="blue" points="109,-214 109,-235 616,-235 616,-214 109,-214"/>
<polygon fill="lightgreen" stroke="transparent" points="114,-219 114,-230 270,-230 270,-219 114,-219"/>
<text text-anchor="start" x="170.5" y="-223.2" font-family="Times New Roman,serif" font-size="6.00">A_SUBMITTED</text>
<polygon fill="lightgreen" stroke="transparent" points="272,-219 272,-230 452,-230 452,-219 272,-219"/>
<text text-anchor="start" x="328.5" y="-223.2" font-family="Times New Roman,serif" font-size="6.00">A_PARTLYSUBMITTED</text>
<polygon fill="lightgreen" stroke="transparent" points="454,-219 454,-230 611,-230 611,-219 454,-219"/>
<text text-anchor="start" x="510" y="-223.2" font-family="Times New Roman,serif" font-size="6.00">A_DECLINED_4</text>
<polygon fill="none" stroke="blue" points="8,-193 8,-214 109,-214 109,-193 8,-193"/>
<text text-anchor="start" x="11" y="-201.3" font-family="Times New Roman,serif" font-size="9.00">Variant 2 (13 occurrences)</text>
<polygon fill="none" stroke="blue" points="109,-193 109,-214 616,-214 616,-193 109,-193"/>
<polygon fill="lightgreen" stroke="transparent" points="114,-198 114,-209 190,-209 190,-198 114,-198"/>
<text text-anchor="start" x="130.5" y="-202.2" font-family="Times New Roman,serif" font-size="6.00">A_SUBMITTED</text>
<polygon fill="lightgreen" stroke="transparent" points="192,-198 192,-209 292,-209 292,-198 192,-198"/>
<text text-anchor="start" x="208.5" y="-202.2" font-family="Times New Roman,serif" font-size="6.00">A_PARTLYSUBMITTED</text>
<polygon fill="lightgreen" stroke="transparent" points="294,-198 294,-209 378,-209 378,-198 294,-198"/>
<text text-anchor="start" x="310.5" y="-202.2" font-family="Times New Roman,serif" font-size="6.00">A_PREACCEPTED</text>
<polygon fill="lightgreen" stroke="transparent" points="380,-198 380,-209 453,-209 453,-198 380,-198"/>
<text text-anchor="start" x="396.5" y="-202.2" font-family="Times New Roman,serif" font-size="6.00">A_ACCEPTED</text>
<polygon fill="lightgreen" stroke="transparent" points="455,-198 455,-209 527,-209 527,-198 455,-198"/>
<text text-anchor="start" x="471" y="-202.2" font-family="Times New Roman,serif" font-size="6.00">A_FINALIZED</text>
<polygon fill="lightgreen" stroke="transparent" points="529,-198 529,-209 611,-209 611,-198 529,-198"/>
<text text-anchor="start" x="545" y="-202.2" font-family="Times New Roman,serif" font-size="6.00">A_CANCELLED_1</text>
<polygon fill="none" stroke="blue" points="8,-172 8,-193 109,-193 109,-172 8,-172"/>
<text text-anchor="start" x="11" y="-180.3" font-family="Times New Roman,serif" font-size="9.00">Variant 3 (11 occurrences)</text>
<polygon fill="none" stroke="blue" points="109,-172 109,-193 616,-193 616,-172 109,-172"/>
<polygon fill="lightgreen" stroke="transparent" points="114,-177 114,-188 229,-188 229,-177 114,-177"/>
<text text-anchor="start" x="150" y="-181.2" font-family="Times New Roman,serif" font-size="6.00">A_SUBMITTED</text>
<polygon fill="lightgreen" stroke="transparent" points="231,-177 231,-188 369,-188 369,-177 231,-177"/>
<text text-anchor="start" x="266.5" y="-181.2" font-family="Times New Roman,serif" font-size="6.00">A_PARTLYSUBMITTED</text>
<polygon fill="lightgreen" stroke="transparent" points="371,-177 371,-188 493,-188 493,-177 371,-177"/>
<text text-anchor="start" x="406.5" y="-181.2" font-family="Times New Roman,serif" font-size="6.00">A_PREACCEPTED</text>
<polygon fill="lightgreen" stroke="transparent" points="495,-177 495,-188 611,-188 611,-177 495,-177"/>
<text text-anchor="start" x="530.5" y="-181.2" font-family="Times New Roman,serif" font-size="6.00">A_DECLINED_4</text>
<polygon fill="none" stroke="blue" points="8,-151 8,-172 109,-172 109,-151 8,-151"/>
<text text-anchor="start" x="11" y="-159.3" font-family="Times New Roman,serif" font-size="9.00">Variant 4 (10 occurrences)</text>
<polygon fill="none" stroke="blue" points="109,-151 109,-172 616,-172 616,-151 109,-151"/>
<polygon fill="lightgreen" stroke="transparent" points="114,-156 114,-167 191,-167 191,-156 114,-156"/>
<text text-anchor="start" x="131" y="-160.2" font-family="Times New Roman,serif" font-size="6.00">A_SUBMITTED</text>
<polygon fill="lightgreen" stroke="transparent" points="193,-156 193,-167 294,-167 294,-156 193,-156"/>
<text text-anchor="start" x="210" y="-160.2" font-family="Times New Roman,serif" font-size="6.00">A_PARTLYSUBMITTED</text>
<polygon fill="lightgreen" stroke="transparent" points="296,-156 296,-167 381,-167 381,-156 296,-156"/>
<text text-anchor="start" x="313" y="-160.2" font-family="Times New Roman,serif" font-size="6.00">A_PREACCEPTED</text>
<polygon fill="lightgreen" stroke="transparent" points="383,-156 383,-167 456,-167 456,-156 383,-156"/>
<text text-anchor="start" x="399.5" y="-160.2" font-family="Times New Roman,serif" font-size="6.00">A_ACCEPTED</text>
<polygon fill="lightgreen" stroke="transparent" points="458,-156 458,-167 531,-167 531,-156 458,-156"/>
<text text-anchor="start" x="474.5" y="-160.2" font-family="Times New Roman,serif" font-size="6.00">A_FINALIZED</text>
<polygon fill="lightgreen" stroke="transparent" points="533,-156 533,-167 611,-167 611,-156 533,-156"/>
<text text-anchor="start" x="549.5" y="-160.2" font-family="Times New Roman,serif" font-size="6.00">A_DECLINED_4</text>
<polygon fill="none" stroke="blue" points="8,-130 8,-151 109,-151 109,-130 8,-130"/>
<text text-anchor="start" x="13" y="-138.3" font-family="Times New Roman,serif" font-size="9.00">Variant 5 (9 occurrences)</text>
<polygon fill="none" stroke="blue" points="109,-130 109,-151 616,-151 616,-130 109,-130"/>
<polygon fill="lightgreen" stroke="transparent" points="114,-135 114,-146 227,-146 227,-135 114,-135"/>
<text text-anchor="start" x="149" y="-139.2" font-family="Times New Roman,serif" font-size="6.00">A_SUBMITTED</text>
<polygon fill="lightgreen" stroke="transparent" points="229,-135 229,-146 366,-146 366,-135 229,-135"/>
<text text-anchor="start" x="264" y="-139.2" font-family="Times New Roman,serif" font-size="6.00">A_PARTLYSUBMITTED</text>
<polygon fill="lightgreen" stroke="transparent" points="368,-135 368,-146 489,-146 489,-135 368,-135"/>
<text text-anchor="start" x="403" y="-139.2" font-family="Times New Roman,serif" font-size="6.00">A_PREACCEPTED</text>
<polygon fill="lightgreen" stroke="transparent" points="491,-135 491,-146 611,-146 611,-135 491,-135"/>
<text text-anchor="start" x="526" y="-139.2" font-family="Times New Roman,serif" font-size="6.00">A_CANCELLED_1</text>
<polygon fill="none" stroke="blue" points="8,-109 8,-130 109,-130 109,-109 8,-109"/>
<text text-anchor="start" x="13" y="-117.3" font-family="Times New Roman,serif" font-size="9.00">Variant 6 (7 occurrences)</text>
<polygon fill="none" stroke="blue" points="109,-109 109,-130 616,-130 616,-109 109,-109"/>
<polygon fill="lightgreen" stroke="transparent" points="114,-114 114,-125 172,-125 172,-114 114,-114"/>
<text text-anchor="start" x="121.5" y="-118.2" font-family="Times New Roman,serif" font-size="6.00">A_SUBMITTED</text>
<polygon fill="lightgreen" stroke="transparent" points="174,-114 174,-125 255,-125 255,-114 174,-114"/>
<text text-anchor="start" x="181" y="-118.2" font-family="Times New Roman,serif" font-size="6.00">A_PARTLYSUBMITTED</text>
<polygon fill="lightgreen" stroke="transparent" points="257,-114 257,-125 322,-125 322,-114 257,-114"/>
<text text-anchor="start" x="264" y="-118.2" font-family="Times New Roman,serif" font-size="6.00">A_PREACCEPTED</text>
<polygon fill="lightgreen" stroke="transparent" points="324,-114 324,-125 378,-125 378,-114 324,-114"/>
<text text-anchor="start" x="331" y="-118.2" font-family="Times New Roman,serif" font-size="6.00">A_ACCEPTED</text>
<polygon fill="lightgreen" stroke="transparent" points="380,-114 380,-125 434,-125 434,-114 380,-114"/>
<text text-anchor="start" x="387" y="-118.2" font-family="Times New Roman,serif" font-size="6.00">A_FINALIZED</text>
<polygon fill="lightgreen" stroke="transparent" points="436,-114 436,-125 491,-125 491,-114 436,-114"/>
<text text-anchor="start" x="443" y="-118.2" font-family="Times New Roman,serif" font-size="6.00">A_APPROVED</text>
<polygon fill="lightgreen" stroke="transparent" points="493,-114 493,-125 552,-125 552,-114 493,-114"/>
<text text-anchor="start" x="500" y="-118.2" font-family="Times New Roman,serif" font-size="6.00">A_REGISTERED</text>
<polygon fill="lightgreen" stroke="transparent" points="554,-114 554,-125 611,-125 611,-114 554,-114"/>
<text text-anchor="start" x="561" y="-118.2" font-family="Times New Roman,serif" font-size="6.00">A_ACTIVATED</text>
<polygon fill="none" stroke="blue" points="8,-88 8,-109 109,-109 109,-88 8,-88"/>
<text text-anchor="start" x="13" y="-96.3" font-family="Times New Roman,serif" font-size="9.00">Variant 7 (4 occurrences)</text>
<polygon fill="none" stroke="blue" points="109,-88 109,-109 616,-109 616,-88 109,-88"/>
<polygon fill="lightgreen" stroke="transparent" points="114,-93 114,-104 162,-104 162,-93 114,-93"/>
<text text-anchor="start" x="116.5" y="-97.2" font-family="Times New Roman,serif" font-size="6.00">A_SUBMITTED</text>
<polygon fill="lightgreen" stroke="transparent" points="164,-93 164,-104 236,-104 236,-93 164,-93"/>
<text text-anchor="start" x="166.5" y="-97.2" font-family="Times New Roman,serif" font-size="6.00">A_PARTLYSUBMITTED</text>
<polygon fill="lightgreen" stroke="transparent" points="238,-93 238,-104 293,-104 293,-93 238,-93"/>
<text text-anchor="start" x="240" y="-97.2" font-family="Times New Roman,serif" font-size="6.00">A_PREACCEPTED</text>
<polygon fill="lightgreen" stroke="transparent" points="295,-93 295,-104 339,-104 339,-93 295,-93"/>
<text text-anchor="start" x="297" y="-97.2" font-family="Times New Roman,serif" font-size="6.00">A_ACCEPTED</text>
<polygon fill="lightgreen" stroke="transparent" points="341,-93 341,-104 385,-104 385,-93 341,-93"/>
<text text-anchor="start" x="343" y="-97.2" font-family="Times New Roman,serif" font-size="6.00">A_FINALIZED</text>
<polygon fill="violet" stroke="transparent" points="387,-93 387,-104 449,-104 449,-93 387,-93"/>
<text text-anchor="start" x="389" y="-98.2" font-family="Times New Roman,serif" font-weight="bold" font-size="6.00">(MM)</text>
<text text-anchor="start" x="406" y="-98.2" font-family="Times New Roman,serif" font-size="6.00">A_APPROVED</text>
<polygon fill="lightgreen" stroke="transparent" points="451,-93 451,-104 500,-104 500,-93 451,-93"/>
<text text-anchor="start" x="453" y="-97.2" font-family="Times New Roman,serif" font-size="6.00">A_REGISTERED</text>
<polygon fill="orange" stroke="transparent" points="502,-93 502,-104 562,-104 562,-93 502,-93"/>
<text text-anchor="start" x="504" y="-98.2" font-family="Times New Roman,serif" font-weight="bold" font-size="6.00">(LM)</text>
<text text-anchor="start" x="519" y="-98.2" font-family="Times New Roman,serif" font-size="6.00">A_APPROVED</text>
<polygon fill="lightgreen" stroke="transparent" points="564,-93 564,-104 611,-104 611,-93 564,-93"/>
<text text-anchor="start" x="566" y="-97.2" font-family="Times New Roman,serif" font-size="6.00">A_ACTIVATED</text>
<polygon fill="none" stroke="blue" points="8,-67 8,-88 109,-88 109,-67 8,-67"/>
<text text-anchor="start" x="13" y="-75.3" font-family="Times New Roman,serif" font-size="9.00">Variant 8 (3 occurrences)</text>
<polygon fill="none" stroke="blue" points="109,-67 109,-88 616,-88 616,-67 109,-67"/>
<polygon fill="lightgreen" stroke="transparent" points="114,-72 114,-83 162,-83 162,-72 114,-72"/>
<text text-anchor="start" x="116.5" y="-76.2" font-family="Times New Roman,serif" font-size="6.00">A_SUBMITTED</text>
<polygon fill="lightgreen" stroke="transparent" points="164,-72 164,-83 236,-83 236,-72 164,-72"/>
<text text-anchor="start" x="166.5" y="-76.2" font-family="Times New Roman,serif" font-size="6.00">A_PARTLYSUBMITTED</text>
<polygon fill="lightgreen" stroke="transparent" points="238,-72 238,-83 293,-83 293,-72 238,-72"/>
<text text-anchor="start" x="240" y="-76.2" font-family="Times New Roman,serif" font-size="6.00">A_PREACCEPTED</text>
<polygon fill="lightgreen" stroke="transparent" points="295,-72 295,-83 339,-83 339,-72 295,-72"/>
<text text-anchor="start" x="297" y="-76.2" font-family="Times New Roman,serif" font-size="6.00">A_ACCEPTED</text>
<polygon fill="lightgreen" stroke="transparent" points="341,-72 341,-83 385,-83 385,-72 341,-72"/>
<text text-anchor="start" x="343" y="-76.2" font-family="Times New Roman,serif" font-size="6.00">A_FINALIZED</text>
<polygon fill="violet" stroke="transparent" points="387,-72 387,-83 449,-83 449,-72 387,-72"/>
<text text-anchor="start" x="389" y="-77.2" font-family="Times New Roman,serif" font-weight="bold" font-size="6.00">(MM)</text>
<text text-anchor="start" x="406" y="-77.2" font-family="Times New Roman,serif" font-size="6.00">A_APPROVED</text>
<polygon fill="lightgreen" stroke="transparent" points="451,-72 451,-83 500,-83 500,-72 451,-72"/>
<text text-anchor="start" x="453" y="-76.2" font-family="Times New Roman,serif" font-size="6.00">A_REGISTERED</text>
<polygon fill="lightgreen" stroke="transparent" points="502,-72 502,-83 549,-83 549,-72 502,-72"/>
<text text-anchor="start" x="504" y="-76.2" font-family="Times New Roman,serif" font-size="6.00">A_ACTIVATED</text>
<polygon fill="orange" stroke="transparent" points="551,-72 551,-83 611,-83 611,-72 551,-72"/>
<text text-anchor="start" x="553" y="-77.2" font-family="Times New Roman,serif" font-weight="bold" font-size="6.00">(LM)</text>
<text text-anchor="start" x="568" y="-77.2" font-family="Times New Roman,serif" font-size="6.00">A_APPROVED</text>
<polygon fill="none" stroke="blue" points="8,-46 8,-67 109,-67 109,-46 8,-46"/>
<text text-anchor="start" x="13" y="-54.3" font-family="Times New Roman,serif" font-size="9.00">Variant 9 (3 occurrences)</text>
<polygon fill="none" stroke="blue" points="109,-46 109,-67 616,-67 616,-46 109,-46"/>
<polygon fill="lightgreen" stroke="transparent" points="114,-51 114,-62 172,-62 172,-51 114,-51"/>
<text text-anchor="start" x="121.5" y="-55.2" font-family="Times New Roman,serif" font-size="6.00">A_SUBMITTED</text>
<polygon fill="lightgreen" stroke="transparent" points="174,-51 174,-62 255,-62 255,-51 174,-51"/>
<text text-anchor="start" x="181" y="-55.2" font-family="Times New Roman,serif" font-size="6.00">A_PARTLYSUBMITTED</text>
<polygon fill="lightgreen" stroke="transparent" points="257,-51 257,-62 322,-62 322,-51 257,-51"/>
<text text-anchor="start" x="264" y="-55.2" font-family="Times New Roman,serif" font-size="6.00">A_PREACCEPTED</text>
<polygon fill="lightgreen" stroke="transparent" points="324,-51 324,-62 378,-62 378,-51 324,-51"/>
<text text-anchor="start" x="331" y="-55.2" font-family="Times New Roman,serif" font-size="6.00">A_ACCEPTED</text>
<polygon fill="lightgreen" stroke="transparent" points="380,-51 380,-62 434,-62 434,-51 380,-51"/>
<text text-anchor="start" x="387" y="-55.2" font-family="Times New Roman,serif" font-size="6.00">A_FINALIZED</text>
<polygon fill="lightgreen" stroke="transparent" points="436,-51 436,-62 491,-62 491,-51 436,-51"/>
<text text-anchor="start" x="443" y="-55.2" font-family="Times New Roman,serif" font-size="6.00">A_APPROVED</text>
<polygon fill="lightgreen" stroke="transparent" points="493,-51 493,-62 550,-62 550,-51 493,-51"/>
<text text-anchor="start" x="500" y="-55.2" font-family="Times New Roman,serif" font-size="6.00">A_ACTIVATED</text>
<polygon fill="lightgreen" stroke="transparent" points="552,-51 552,-62 611,-62 611,-51 552,-51"/>
<text text-anchor="start" x="559" y="-55.2" font-family="Times New Roman,serif" font-size="6.00">A_REGISTERED</text>
<polygon fill="none" stroke="blue" points="8,-25 8,-46 109,-46 109,-25 8,-25"/>
<text text-anchor="start" x="11" y="-33.3" font-family="Times New Roman,serif" font-size="9.00">Variant 10 (1 occurrences)</text>
<polygon fill="none" stroke="blue" points="109,-25 109,-46 616,-46 616,-25 109,-25"/>
<polygon fill="lightgreen" stroke="transparent" points="114,-30 114,-41 162,-41 162,-30 114,-30"/>
<text text-anchor="start" x="116.5" y="-34.2" font-family="Times New Roman,serif" font-size="6.00">A_SUBMITTED</text>
<polygon fill="lightgreen" stroke="transparent" points="164,-30 164,-41 236,-41 236,-30 164,-30"/>
<text text-anchor="start" x="166.5" y="-34.2" font-family="Times New Roman,serif" font-size="6.00">A_PARTLYSUBMITTED</text>
<polygon fill="lightgreen" stroke="transparent" points="238,-30 238,-41 293,-41 293,-30 238,-30"/>
<text text-anchor="start" x="240" y="-34.2" font-family="Times New Roman,serif" font-size="6.00">A_PREACCEPTED</text>
<polygon fill="lightgreen" stroke="transparent" points="295,-30 295,-41 339,-41 339,-30 295,-30"/>
<text text-anchor="start" x="297" y="-34.2" font-family="Times New Roman,serif" font-size="6.00">A_ACCEPTED</text>
<polygon fill="lightgreen" stroke="transparent" points="341,-30 341,-41 385,-41 385,-30 341,-30"/>
<text text-anchor="start" x="343" y="-34.2" font-family="Times New Roman,serif" font-size="6.00">A_FINALIZED</text>
<polygon fill="violet" stroke="transparent" points="387,-30 387,-41 449,-41 449,-30 387,-30"/>
<text text-anchor="start" x="389" y="-35.2" font-family="Times New Roman,serif" font-weight="bold" font-size="6.00">(MM)</text>
<text text-anchor="start" x="406" y="-35.2" font-family="Times New Roman,serif" font-size="6.00">A_APPROVED</text>
<polygon fill="lightgreen" stroke="transparent" points="451,-30 451,-41 498,-41 498,-30 451,-30"/>
<text text-anchor="start" x="453" y="-34.2" font-family="Times New Roman,serif" font-size="6.00">A_ACTIVATED</text>
<polygon fill="lightgreen" stroke="transparent" points="500,-30 500,-41 549,-41 549,-30 500,-30"/>
<text text-anchor="start" x="502" y="-34.2" font-family="Times New Roman,serif" font-size="6.00">A_REGISTERED</text>
<polygon fill="orange" stroke="transparent" points="551,-30 551,-41 611,-41 611,-30 551,-30"/>
<text text-anchor="start" x="553" y="-35.2" font-family="Times New Roman,serif" font-weight="bold" font-size="6.00">(LM)</text>
<text text-anchor="start" x="568" y="-35.2" font-family="Times New Roman,serif" font-size="6.00">A_APPROVED</text>
<polygon fill="none" stroke="blue" points="8,-4 8,-25 109,-25 109,-4 8,-4"/>
<text text-anchor="start" x="11" y="-12.3" font-family="Times New Roman,serif" font-size="9.00">Variant 11 (1 occurrences)</text>
<polygon fill="none" stroke="blue" points="109,-4 109,-25 616,-25 616,-4 109,-4"/>
<polygon fill="lightgreen" stroke="transparent" points="114,-9 114,-20 161,-20 161,-9 114,-9"/>
<text text-anchor="start" x="116" y="-13.2" font-family="Times New Roman,serif" font-size="6.00">A_SUBMITTED</text>
<polygon fill="lightgreen" stroke="transparent" points="163,-9 163,-20 234,-20 234,-9 163,-9"/>
<text text-anchor="start" x="165" y="-13.2" font-family="Times New Roman,serif" font-size="6.00">A_PARTLYSUBMITTED</text>
<polygon fill="lightgreen" stroke="transparent" points="236,-9 236,-20 291,-20 291,-9 236,-9"/>
<text text-anchor="start" x="238" y="-13.2" font-family="Times New Roman,serif" font-size="6.00">A_PREACCEPTED</text>
<polygon fill="lightgreen" stroke="transparent" points="293,-9 293,-20 337,-20 337,-9 293,-9"/>
<text text-anchor="start" x="295" y="-13.2" font-family="Times New Roman,serif" font-size="6.00">A_ACCEPTED</text>
<polygon fill="lightgreen" stroke="transparent" points="339,-9 339,-20 383,-20 383,-9 339,-9"/>
<text text-anchor="start" x="341" y="-13.2" font-family="Times New Roman,serif" font-size="6.00">A_FINALIZED</text>
<polygon fill="orange" stroke="transparent" points="385,-9 385,-20 447,-20 447,-9 385,-9"/>
<text text-anchor="start" x="387" y="-14.2" font-family="Times New Roman,serif" font-weight="bold" font-size="6.00">(LM)</text>
<text text-anchor="start" x="402" y="-14.2" font-family="Times New Roman,serif" font-size="6.00">A_ACTIVATED</text>
<polygon fill="lightgreen" stroke="transparent" points="449,-9 449,-20 494,-20 494,-9 449,-9"/>
<text text-anchor="start" x="451" y="-13.2" font-family="Times New Roman,serif" font-size="6.00">A_APPROVED</text>
<polygon fill="violet" stroke="transparent" points="496,-9 496,-20 560,-20 560,-9 496,-9"/>
<text text-anchor="start" x="498" y="-14.2" font-family="Times New Roman,serif" font-weight="bold" font-size="6.00">(MM)</text>
<text text-anchor="start" x="515" y="-14.2" font-family="Times New Roman,serif" font-size="6.00">A_ACTIVATED</text>
<polygon fill="lightgreen" stroke="transparent" points="562,-9 562,-20 611,-20 611,-9 562,-9"/>
<text text-anchor="start" x="564" y="-13.2" font-family="Times New Roman,serif" font-size="6.00">A_REGISTERED</text>
</g>
</g>
</svg>
